<svg width="50" height="50" viewBox="0 0 50 50" fill="none" xmlns="http://www.w3.org/2000/svg">
<path d="M31.3903 23.2022C31.3042 22.937 31.075 22.7438 30.799 22.7038L27.246 22.1875L25.657 18.9679C25.5336 18.7179 25.279 18.5596 25.0002 18.5596C24.7214 18.5596 24.4668 18.7179 24.3434 18.9679L22.7544 22.1875L19.2014 22.7038C18.9255 22.7438 18.6962 22.9371 18.6101 23.2022C18.5239 23.4674 18.5958 23.7584 18.7953 23.953L21.3667 26.4591L20.7598 29.9979C20.7126 30.2726 20.8256 30.5503 21.0511 30.7142C21.2767 30.8779 21.5755 30.8996 21.8224 30.7699L25.0004 29.0993L28.1783 30.77C28.2856 30.8264 28.4026 30.8541 28.5191 30.8541C28.671 30.8541 28.8221 30.8069 28.9496 30.7142C29.1752 30.5503 29.2882 30.2727 29.2409 29.9979L28.634 26.4591L31.2051 23.953C31.4047 23.7584 31.4765 23.4673 31.3903 23.2022ZM27.3358 25.679C27.1631 25.8474 27.0844 26.0897 27.1252 26.3273L27.5464 28.783L25.3412 27.6236C25.2345 27.5676 25.1175 27.5396 25.0004 27.5396C24.8833 27.5396 24.7663 27.5676 24.6596 27.6236L22.4544 28.783L22.8756 26.3273C22.9164 26.0897 22.8376 25.8474 22.6651 25.679L20.8809 23.94L23.3463 23.5817C23.5849 23.5472 23.7911 23.3973 23.8978 23.1811L25.0004 20.9469L26.103 23.1811C26.2098 23.3973 26.4159 23.5471 26.6545 23.5817L29.1199 23.94L27.3358 25.679Z" fill="white"/>
<path d="M43.1072 21.8712C43.0211 21.606 42.7919 21.4128 42.5159 21.3728L40.6397 21.1001L39.8006 19.4C39.6771 19.15 39.4225 18.9917 39.1437 18.9917C38.8649 18.9917 38.6103 19.15 38.4869 19.4L37.6478 21.1001L35.7717 21.3728C35.4958 21.4128 35.2665 21.6061 35.1804 21.8712C35.0942 22.1363 35.1661 22.4273 35.3656 22.622L36.7236 23.9454L36.4032 25.8141C36.356 26.0888 36.469 26.3665 36.6945 26.5304C36.8222 26.623 36.9732 26.6703 37.1251 26.6703C37.2416 26.6703 37.3587 26.6426 37.4658 26.5862L39.1439 25.704L40.8222 26.5862C41.069 26.716 41.368 26.6941 41.5934 26.5305C41.819 26.3666 41.932 26.089 41.8848 25.8142L41.5643 23.9455L42.922 22.622C43.1216 22.4274 43.1933 22.1363 43.1072 21.8712ZM40.266 23.1653C40.0934 23.3336 40.0146 23.576 40.0555 23.8136L40.1901 24.599L39.4847 24.2281C39.3779 24.1721 39.2609 24.144 39.1438 24.144C39.0267 24.144 38.9098 24.1721 38.803 24.2281L38.0976 24.599L38.2323 23.8136C38.2731 23.576 38.1943 23.3336 38.0218 23.1653L37.451 22.609L38.2398 22.4943C38.4784 22.4598 38.6847 22.3099 38.7913 22.0937L39.1439 21.379L39.4967 22.0937C39.6034 22.3099 39.8096 22.4597 40.0481 22.4943L40.8368 22.609L40.266 23.1653Z" fill="white"/>
<path d="M14.8178 25.6227C14.7319 25.3576 14.5028 25.1645 14.2269 25.1243L12.3507 24.8517L11.5116 23.1515C11.3882 22.9015 11.1336 22.7432 10.8548 22.7432C10.576 22.7432 10.3214 22.9015 10.198 23.1515L9.3588 24.8517L7.48263 25.1243C7.20675 25.1644 6.97746 25.3576 6.89132 25.6228C6.80519 25.8879 6.87707 26.1789 7.07658 26.3735L8.43419 27.6969L8.11378 29.5656C8.06662 29.8403 8.1796 30.1181 8.40509 30.2819C8.63068 30.4457 8.92951 30.4673 9.17638 30.3377L10.8546 29.4555L12.5327 30.3377C12.64 30.394 12.7569 30.4218 12.8735 30.4218C13.0253 30.4218 13.1765 30.3746 13.304 30.2818C13.5296 30.118 13.6426 29.8403 13.5953 29.5655L13.2749 27.6968L14.6325 26.3734C14.8321 26.1788 14.9039 25.8877 14.8178 25.6227ZM11.977 26.9169C11.8043 27.0852 11.7256 27.3275 11.7664 27.5651L11.9011 28.3507L11.1957 27.9798C10.9823 27.8678 10.7276 27.8676 10.5141 27.9798L9.80861 28.3507L9.94328 27.5651C9.9841 27.3275 9.90529 27.0852 9.73273 26.9169L9.16203 26.3606L9.9506 26.246C10.1892 26.2114 10.3954 26.0615 10.5021 25.8453L10.8548 25.1307L11.2074 25.8453C11.3142 26.0615 11.5203 26.2113 11.7589 26.246L12.5475 26.3606L11.977 26.9169Z" fill="white"/>
<path d="M49.7547 13.4119C49.5986 13.2729 49.3912 13.2072 49.1831 13.2312L42.1665 14.0448C41.0816 12.3468 39.7532 10.8209 38.2119 9.50459C37.9045 9.24189 37.4421 9.27832 37.1794 9.58594C36.9167 9.89346 36.9531 10.3559 37.2607 10.6185C38.5075 11.6832 39.6009 12.8978 40.5282 14.2348L38.0145 14.5263C36.5248 12.6788 34.6339 11.1462 32.5221 10.0794C30.1766 8.89463 27.6458 8.29393 25 8.29393C18.5701 8.29393 12.7012 12.0046 9.92998 17.7826L7.4123 18.0745C10.2414 10.8679 17.1687 6.10254 25 6.10254C28.5102 6.10254 31.9357 7.07109 34.9064 8.90361C35.2507 9.11611 35.702 9.00907 35.9143 8.66483C36.1267 8.32059 36.0197 7.86934 35.6755 7.65703C32.4735 5.68174 28.782 4.6377 25 4.6377C20.6116 4.6377 16.432 6.01182 12.9129 8.61152C9.59111 11.0653 7.13242 14.3954 5.7791 18.2638L0.648047 18.8587C0.278711 18.9017 0 19.2145 0 19.5863V36.0408C0 36.2498 0.0892578 36.4488 0.245313 36.5878C0.380176 36.7078 0.553711 36.7732 0.732422 36.7732C0.760449 36.7732 0.788574 36.7716 0.816797 36.7684L7.83496 35.9546C9.60059 38.7146 12.0204 41.0282 14.8615 42.6625C17.9321 44.4287 21.4379 45.3623 25 45.3623C29.3886 45.3623 33.5686 43.9879 37.0879 41.3876C40.4093 38.9336 42.8676 35.6038 44.2207 31.7359L49.352 31.141C49.7213 31.0982 50 30.7853 50 30.4135V13.9588C50 13.7499 49.9107 13.5509 49.7547 13.4119ZM25 43.8975C18.7283 43.8975 13.0075 40.8768 9.4708 35.765L11.9846 35.4735C13.4748 37.3211 15.3659 38.8539 17.4779 39.9206C19.8236 41.1054 22.3544 41.7061 25 41.7061C27.5275 41.7061 29.955 41.1561 32.2153 40.0715C32.58 39.8965 32.7338 39.459 32.5588 39.0942C32.3838 38.7297 31.9464 38.5758 31.5815 38.7508C29.5207 39.7398 27.3063 40.2412 25 40.2412C20.6594 40.2412 16.6231 38.4448 13.7367 35.2704L38.3143 32.4207C37.2634 34.3016 35.8181 35.952 34.08 37.2431C33.7553 37.4843 33.6874 37.943 33.9287 38.2677C34.0725 38.4611 34.2934 38.5634 34.5172 38.5634C34.669 38.5634 34.8221 38.5164 34.9533 38.4189C37.1354 36.7982 38.8964 34.6601 40.0687 32.2173L42.5878 31.9252C39.7592 39.1321 32.8315 43.8975 25 43.8975ZM48.5352 29.7609L1.46484 35.2187V20.2388L14.5513 18.7214C14.953 18.6747 15.241 18.3113 15.1944 17.9095C15.1478 17.5076 14.7841 17.2193 14.3825 17.2663L11.6885 17.5787C14.3627 12.7895 19.4512 9.75879 25 9.75879C29.3406 9.75879 33.3754 11.5556 36.2609 14.7296L17.454 16.9102C17.0522 16.9568 16.7643 17.3202 16.8108 17.7221C16.8575 18.1238 17.2209 18.4121 17.6228 18.3652L48.5352 14.7811V29.7609Z" fill="white"/>
<path d="M26.9383 11.2461H23.0625C22.6579 11.2461 22.3301 11.5739 22.3301 11.9785C22.3301 12.3831 22.658 12.7109 23.0625 12.7109H26.9383C27.3429 12.7109 27.6707 12.3831 27.6707 11.9785C27.6707 11.5739 27.3429 11.2461 26.9383 11.2461Z" fill="white"/>
<path d="M28.9062 13.4521H21.0938C20.6892 13.4521 20.3613 13.78 20.3613 14.1846C20.3613 14.5892 20.6892 14.917 21.0938 14.917H28.9062C29.3108 14.917 29.6387 14.5892 29.6387 14.1846C29.6387 13.78 29.3108 13.4521 28.9062 13.4521Z" fill="white"/>
<path d="M26.9383 37.4922H23.0625C22.6579 37.4922 22.3301 37.82 22.3301 38.2246C22.3301 38.6292 22.6579 38.957 23.0625 38.957H26.9383C27.3429 38.957 27.6707 38.6292 27.6707 38.2246C27.6707 37.82 27.3428 37.4922 26.9383 37.4922Z" fill="white"/>
<path d="M28.9062 35.2856H21.0938C20.6892 35.2856 20.3613 35.6135 20.3613 36.0181C20.3613 36.4227 20.6892 36.7505 21.0938 36.7505H28.9062C29.3108 36.7505 29.6387 36.4227 29.6387 36.0181C29.6387 35.6135 29.3108 35.2856 28.9062 35.2856Z" fill="white"/>
</svg>
