<svg width="107" height="109" viewBox="0 0 107 109" fill="none" xmlns="http://www.w3.org/2000/svg">
<g clip-path="url(#clip0_401_2128)">
<path d="M15.3848 2.90149V10.461L37.2594 13.4404L59.1705 10.461V2.90149C59.1705 1.29906 57.8953 0 56.3223 0H18.2332C16.66 0 15.3848 1.29906 15.3848 2.90149Z" fill="#FFB4CE"/>
<path d="M56.3224 0H37.2596V13.4404L59.1708 10.461V2.90149C59.1706 1.29906 57.8954 0 56.3224 0Z" fill="#FF81AD"/>
<path d="M15.3848 10.4609H59.1705V19.6493H15.3848V10.4609Z" fill="#FF81AD"/>
<path d="M37.2596 10.4609H59.1781V19.6493H37.2596V10.4609Z" fill="#FF5E98"/>
<path d="M74.5301 31.5184C74.0839 23.34 67.4341 16.8477 59.2941 16.8477H15.2615C7.12158 16.8477 0.471694 23.34 0.0255127 31.5184L37.0736 36.1351L74.5301 31.5184Z" fill="#363B51"/>
<path d="M0 94.3292V97.8808C0 104.022 4.88689 109 10.915 109H63.6403C69.6685 109 74.5554 104.022 74.5554 97.8808V94.3292L37.0736 86.6821L0 94.3292Z" fill="#363B51"/>
<path d="M37.2852 16.8477V36.1123L74.5301 31.5184C74.084 23.34 67.4596 16.8477 59.3196 16.8477H37.2852Z" fill="#171E37"/>
<path d="M37.2594 109H63.6403C69.6685 109 74.5554 104.022 74.5554 97.881V94.3294L37.2594 86.7202V109Z" fill="#171E37"/>
<path d="M18.6964 37.5474C18.6807 37.8375 0 41.3611 0 41.6553V84.1928L37.2594 89.2879L52.2095 62.9241L37.2594 41.6553L18.6964 37.5474Z" fill="white"/>
<path d="M64.084 37.5474L37.2594 41.6553V84.1928L55.9075 88.7329L74.5556 84.2462V41.6553C74.5556 41.3611 64.0999 37.8375 64.084 37.5474Z" fill="#E8EBF9"/>
<path d="M37.2596 31.5186H0.0254961C0.00961328 31.8087 0 32.1004 0 32.3946V41.6553H37.2596L41.5946 36.1355L37.2596 31.5186Z" fill="#FF5E98"/>
<path d="M74.5301 31.5186H37.2596V41.6553H74.5556V32.3946C74.5556 32.1004 74.5458 31.8087 74.5301 31.5186Z" fill="#FF036F"/>
<path d="M37.2851 94.3294H0V84.1929H37.2851L40.5557 89.2612L37.2851 94.3294Z" fill="#FF5E98"/>
<path d="M37.2596 84.2461H74.5556V94.3292H37.2596V84.2461Z" fill="#FF036F"/>
<path d="M105.066 66.3123C103.153 58.7996 101.136 51.6051 99.7586 46.8181C98.8364 43.6134 95.3978 40.9919 92.1194 40.9917H87.8706C83.4244 40.9917 79.8203 44.6615 79.8203 49.1884C79.8203 53.7153 83.4244 57.3851 87.8706 57.3851H89.1243V59.7942C89.1243 62.0538 88.8411 64.3066 88.249 66.4845C86.8083 71.7855 85.681 79.0299 88.225 86.6012L88.2269 86.605C85.5862 81.1872 79.3877 76.9315 72.7712 76.7373C71.7365 76.7069 70.8463 76.0094 70.5593 74.9963C68.6599 68.293 62.5893 63.3906 55.3942 63.3906C46.6781 63.3906 39.6123 70.5848 39.6123 79.4593C39.6123 79.4593 39.6123 79.4955 39.6136 79.5632C39.6177 80.2402 39.6627 80.9074 39.7467 81.5621C40.4378 88.3126 46.9646 109 72.9785 109C104.064 109 106.398 98.9367 106.398 98.9367C106.398 98.9367 108.414 79.4595 105.066 66.3123Z" fill="#FFDBC0"/>
<path d="M99.7589 46.8181C98.8367 43.6134 95.3981 40.9919 92.1197 40.9917H87.8709C83.4247 40.9917 79.8206 44.6615 79.8206 49.1884C79.8206 53.7153 83.4249 57.3851 87.8709 57.3851H89.1246V59.794C89.1246 62.0538 88.8414 64.3066 88.2493 66.4843C86.8086 71.7853 85.6813 79.0297 88.2253 86.601L88.2272 86.6048C85.8255 81.6772 80.4808 77.7121 74.5554 76.8887V108.99C104.142 108.656 106.398 98.9367 106.398 98.9367C106.398 98.9367 108.414 79.4593 105.066 66.3121C103.153 58.7996 101.136 51.6049 99.7589 46.8181Z" fill="#FFBFAB"/>
</g>
<defs>
<clipPath id="clip0_401_2128">
<rect width="107" height="109" fill="white"/>
</clipPath>
</defs>
</svg>
