<svg width="108" height="109" viewBox="0 0 108 109" fill="none" xmlns="http://www.w3.org/2000/svg">
<g clip-path="url(#clip0_401_2086)">
<path d="M25.2909 16.6943L30.0067 7.76238C31.1975 5.50717 33.3579 4.12451 35.6914 4.12451H72.385C74.7057 4.12451 76.8567 5.49236 78.0514 7.72827L82.836 16.6815C83.4533 17.8366 83.7795 19.1587 83.7795 20.5061V89.6813C83.7795 91.0287 83.4533 92.3507 82.836 93.5058L78.0514 102.459C76.8564 104.695 74.7057 106.063 72.385 106.063H35.6914C33.3579 106.063 31.1975 104.68 30.0067 102.425L25.2909 93.493C24.6851 92.3458 24.3656 91.0365 24.3656 89.7026V20.485C24.3656 19.1509 24.6851 17.8416 25.2909 16.6943Z" fill="#C2B2EB"/>
<path d="M83.759 90.2427C83.7717 90.0564 83.7795 89.8695 83.7795 89.6816V20.5058C83.7795 20.0572 83.7401 19.6124 83.6689 19.1748H24.4726C24.4038 19.6057 24.3656 20.0438 24.3656 20.485V89.7027C24.3656 89.8834 24.3725 90.0634 24.3843 90.2429H83.759V90.2427Z" fill="#9781DD"/>
<path d="M48.6289 79.6431L68.6675 53.0456L60.5175 49.0135L66.894 33.3383L45.1231 33.2544L39.4231 54.1747L50.0251 59.5224L48.6289 79.6431Z" fill="#F6E06E"/>
<path d="M82.836 16.6818L78.0514 7.72827C76.8565 5.49236 74.7058 4.12451 72.385 4.12451H62.4372C64.2772 4.12451 65.9825 5.20914 66.9298 6.98184L70.7233 14.0805C71.2127 14.9964 71.4713 16.0444 71.4713 17.1127V71.9576C71.4713 71.9576 71.8313 79.1433 69.5603 81.9446C67.2893 84.7458 65.423 84.9457 62.4374 84.9457C59.4515 84.9457 33.3453 84.9457 33.3453 84.9457C31.4952 84.9457 29.7824 83.8497 28.8382 82.0615L25.0994 74.9799C24.6191 74.0703 24.3658 73.0321 24.3658 71.9744V89.7028C24.3658 91.0368 24.6856 92.346 25.2911 93.4933L30.007 102.425C31.1977 104.68 33.3582 106.063 35.6916 106.063H72.3852C74.706 106.063 76.8569 104.695 78.0516 102.459L82.8362 93.5061C83.4535 92.351 83.7797 91.0289 83.7797 89.6815V20.5061C83.7795 19.1587 83.4533 17.8369 82.836 16.6818Z" fill="#B28BE8"/>
<path d="M71.4713 19.175V71.9578C71.4713 75.6888 71.8313 79.1437 69.5603 81.9447C67.2893 84.7459 65.423 84.9459 62.4374 84.9459C59.4515 84.9459 33.3453 84.9459 33.3453 84.9459C31.4952 84.9459 29.7824 83.8498 28.8382 82.0616L25.0994 74.98C24.6191 74.0705 24.3658 73.0323 24.3658 71.9746V89.703C24.3658 89.8836 24.3727 90.0636 24.3845 90.2429H83.7592C83.7719 90.0564 83.7797 89.8693 83.7797 89.6814V20.5063C83.7797 20.0577 83.7403 19.6127 83.6692 19.1748L71.4713 19.175Z" fill="#8962DE"/>
<path d="M77.3944 108.855H30.7506C28.6521 108.855 26.951 107.138 26.951 105.02V104.15C26.951 102.032 28.6521 100.315 30.7506 100.315H77.3944C79.4928 100.315 81.1939 102.032 81.1939 104.15V105.02C81.1939 107.138 79.4928 108.855 77.3944 108.855Z" fill="#C2B2EB"/>
<path d="M77.3944 8.68443H30.7506C28.6521 8.68443 26.951 6.96761 26.951 4.84974V3.97922C26.951 1.86135 28.6521 0.144531 30.7506 0.144531H77.3944C79.4928 0.144531 81.1939 1.86135 81.1939 3.97922V4.84974C81.1939 6.96761 79.4928 8.68443 77.3944 8.68443Z" fill="#C2B2EB"/>
<path d="M77.6002 11.4284H30.5448C29.3167 11.4284 28.3212 10.4236 28.3212 9.18415C28.3212 7.94467 29.3167 6.93994 30.5448 6.93994H77.6002C78.8283 6.93994 79.8238 7.94467 79.8238 9.18415C79.8238 10.4234 78.8283 11.4284 77.6002 11.4284Z" fill="#A171E3"/>
<path d="M41.8312 29.3445C40.6087 29.3445 39.6143 28.3476 39.6078 27.1121C39.6014 25.8729 40.5916 24.8628 41.8197 24.856C46.1079 24.8331 50.0915 24.8331 54.356 24.856C55.5841 24.8625 56.5743 25.8727 56.5678 27.1121C56.5614 28.3474 55.567 29.3445 54.3444 29.3445C54.3404 29.3445 54.3364 29.3445 54.3324 29.3445C50.0842 29.3216 46.1155 29.3216 41.8432 29.3445C41.8392 29.3445 41.8352 29.3445 41.8312 29.3445Z" fill="white"/>
<path d="M34.2571 29.3444H31.5719C30.3438 29.3444 29.3483 28.3396 29.3483 27.1002C29.3483 25.8607 30.3438 24.856 31.5719 24.856H34.2571C35.4852 24.856 36.4808 25.8607 36.4808 27.1002C36.4808 28.3394 35.4852 29.3444 34.2571 29.3444Z" fill="white"/>
<path d="M61.7358 76.7773C60.9989 76.7773 60.4016 76.1745 60.4016 75.4307V72.6771C60.4016 71.9334 60.9989 71.3306 61.7358 71.3306C62.4727 71.3306 63.07 71.9334 63.07 72.6771V75.4307C63.07 76.1745 62.4725 76.7773 61.7358 76.7773Z" fill="#7844C1"/>
<path d="M75.6968 72.582C74.9602 72.582 74.3627 71.9789 74.3627 71.2354V68.4818C74.3627 67.738 74.9602 67.1353 75.6968 67.1353C76.4335 67.1353 77.031 67.738 77.031 68.4818V71.2354C77.031 71.9789 76.4335 72.582 75.6968 72.582Z" fill="#7844C1"/>
<path d="M68.5285 81.0483C67.7918 81.0483 67.1943 80.4452 67.1943 79.7017V76.9481C67.1943 76.2046 67.7918 75.6016 68.5285 75.6016C69.2654 75.6016 69.8627 76.2046 69.8627 76.9481V79.7017C69.8627 80.4452 69.2652 81.0483 68.5285 81.0483Z" fill="#7844C1"/>
<path d="M7.88054 18.582C8.37176 16.4144 7.0289 14.2553 4.88118 13.7595C2.73345 13.2637 0.594162 14.619 0.102939 16.7866C-0.388284 18.9542 0.954575 21.1133 3.1023 21.6091C5.25002 22.1049 7.38931 20.7496 7.88054 18.582Z" fill="#9781DD"/>
<path d="M10.4184 37.8135C11.3686 37.8135 12.1388 37.0361 12.1388 36.0772C12.1388 35.1182 11.3686 34.3408 10.4184 34.3408C9.46825 34.3408 8.698 35.1182 8.698 36.0772C8.698 37.0361 9.46825 37.8135 10.4184 37.8135Z" fill="#9781DD"/>
<path d="M100.699 3.61123L102.525 8.79491C102.603 9.01686 102.758 9.1928 102.954 9.28145L107.517 11.3564C108.161 11.6495 108.161 12.6861 107.517 12.9795L102.954 15.0545C102.758 15.1433 102.603 15.3191 102.525 15.541L100.699 20.7247C100.441 21.457 99.5279 21.457 99.2699 20.7247L97.4434 15.541C97.3652 15.3191 97.2104 15.1431 97.0149 15.0545L92.4519 12.9795C91.8072 12.6864 91.8072 11.6498 92.4519 11.3564L97.0149 9.28145C97.2104 9.19258 97.3652 9.01663 97.4434 8.79491L99.2699 3.61123C99.5279 2.87894 100.44 2.87894 100.699 3.61123Z" fill="#C2B2EB"/>
</g>
<defs>
<clipPath id="clip0_401_2086">
<rect width="108" height="109" fill="white"/>
</clipPath>
</defs>
</svg>
