<svg width="106" height="109" viewBox="0 0 106 109" fill="none" xmlns="http://www.w3.org/2000/svg">
<g clip-path="url(#clip0_401_2111)">
<path d="M71.6336 16.8636V40.6989H34.3663V3.94073C34.3663 1.76478 36.0818 0.000976562 38.1977 0.000976562H58.1888C58.5439 0.000976562 58.8358 0.274967 58.8848 0.636455C59.3916 4.37311 62.446 7.10684 65.8017 7.34485C66.1945 7.37274 66.4868 7.72954 66.4467 8.13233C66.098 11.6244 68.0524 14.9099 71.1912 16.1954C71.4578 16.3046 71.6336 16.5686 71.6336 16.8636Z" fill="#C0694E"/>
<path d="M45.7061 0C43.5908 0 41.8747 1.76486 41.8747 3.93997V40.6979H34.3663V3.93997C34.3663 1.76486 36.0826 0 38.1977 0L45.7061 0Z" fill="#AE583E"/>
<path d="M74.3323 27.4644C75.2801 27.4644 76.0486 28.2544 76.0486 29.2292V103.125C76.0486 103.65 75.8318 104.148 75.4521 104.497L70.7476 108.818C70.4836 109.061 70.0869 109.061 69.8229 108.818L64.9832 104.373C64.7215 104.131 64.3225 104.131 64.0606 104.373L59.2209 108.818C58.9592 109.061 58.5602 109.061 58.2984 108.818L53.4586 104.373C53.1969 104.133 52.7979 104.131 52.536 104.373L47.6963 108.818C47.4346 109.061 47.0356 109.061 46.7737 108.818L41.934 104.373C41.6713 104.132 41.2742 104.132 41.0117 104.373L36.1742 108.818C35.9102 109.061 35.5135 109.061 35.2496 108.818L30.5473 104.496C30.1676 104.148 29.9508 103.649 29.9508 103.124V29.2292C29.9508 28.2546 30.7191 27.4644 31.6671 27.4644H74.3323Z" fill="#F76C57"/>
<path d="M39.4678 105.794L36.1748 108.818C35.9108 109.061 35.5141 109.061 35.2502 108.818L30.5479 104.497C30.1682 104.148 29.9514 103.65 29.9514 103.125V29.2292C29.9514 28.2542 30.7195 27.4644 31.6677 27.4644H39.1761C38.2279 27.4644 37.4598 28.2542 37.4598 29.2292V103.125C37.4598 103.65 37.6766 104.148 38.0563 104.497L39.4678 105.794Z" fill="#E5554E"/>
<path d="M56.457 38.361L41.421 63.2914C40.8875 64.1759 41.4864 65.3364 42.4762 65.3364H49.6734C50.5945 65.3364 51.2007 66.3557 50.804 67.2375L43.3596 83.7842C42.5242 85.4382 44.5662 87.0227 45.7993 85.6777L64.5182 59.7286C65.1488 58.8543 64.5613 57.5923 63.5234 57.5923H54.9964C54.1315 57.5923 53.5267 56.6845 53.8157 55.8197L59.211 39.6677C59.671 37.8831 57.4046 36.8078 56.457 38.361Z" fill="#FED22B"/>
<path d="M43.4977 5.32208C42.8577 4.68767 41.8391 4.70661 41.2226 5.36445C40.6058 6.02207 40.6243 7.06949 41.264 7.70369L44.2674 10.6818C44.5796 10.9914 44.9821 11.1455 45.3839 11.1455C45.8054 11.1455 46.2265 10.9762 46.5423 10.6395C47.159 9.98183 47.1406 8.93441 46.5009 8.30021L43.4977 5.32208Z" fill="#FED22B"/>
<path d="M57.5667 8.55401C56.9267 7.9196 55.9081 7.93855 55.2916 8.59638C54.6749 9.254 54.6935 10.3014 55.333 10.9356L58.3364 13.9137C58.6486 14.2233 59.0511 14.3774 59.4529 14.3774C59.8745 14.3774 60.2956 14.2082 60.6113 13.8714C61.228 13.2138 61.2096 12.1663 60.5699 11.5321L57.5667 8.55401Z" fill="#FED22B"/>
<path d="M64.3157 16.4939C63.4416 16.3285 62.6031 16.9239 62.4429 17.8226L61.6899 22.0423C61.5295 22.9411 62.1081 23.8031 62.982 23.9681C63.0801 23.9866 63.1779 23.9955 63.2743 23.9955C64.0358 23.9955 64.7126 23.4371 64.855 22.6394L65.608 18.4197C65.7682 17.5211 65.1898 16.6591 64.3157 16.4939Z" fill="#FED22B"/>
<path d="M55.3973 18.02L51.5109 19.5805C50.6832 19.9128 50.2743 20.8723 50.5975 21.7235C50.8457 22.3768 51.4531 22.7764 52.0966 22.7764C52.2912 22.7764 52.4891 22.7398 52.6814 22.6627L56.5678 21.1022C57.3955 20.7699 57.8044 19.8104 57.4812 18.9593C57.1579 18.1082 56.225 17.6877 55.3973 18.02Z" fill="#FED22B"/>
<path d="M42.6679 14.9814C41.8506 14.6241 40.9057 15.0154 40.5577 15.8561L38.9246 19.804C38.5768 20.6447 38.9575 21.6163 39.7753 21.974C39.9809 22.0638 40.1941 22.1064 40.4042 22.1064C41.0301 22.1064 41.6251 21.7285 41.8856 21.099L43.5186 17.1512C43.8664 16.3104 43.4857 15.339 42.6679 14.9814Z" fill="#FED22B"/>
<path d="M52.2576 13.3707C52.6054 12.53 52.2244 11.5583 51.4067 11.2007C50.5887 10.8432 49.644 11.2349 49.2964 12.0754L47.6633 16.0235C47.3155 16.8642 47.6965 17.8358 48.5142 18.1935C48.7198 18.2833 48.9333 18.3259 49.1432 18.3259C49.769 18.3259 50.3641 17.948 50.6245 17.3185L52.2576 13.3707Z" fill="#FED22B"/>
<path d="M76.5341 28.3951C76.2352 27.822 75.654 27.4644 75.0215 27.4644H52.0961H49.1441H30.9787C30.3463 27.4644 29.7651 27.822 29.4662 28.3951L20.1384 46.2835C19.4769 47.5521 20.3707 49.0879 21.7706 49.0879H49.1441H52.0961H84.2297C85.6296 49.0879 86.5234 47.5523 85.8619 46.2835L76.5341 28.3951Z" fill="#B3ADB6"/>
<path d="M84.2305 49.0872H21.7696C20.3709 49.0872 19.4763 47.5519 20.1392 46.2835L29.4668 28.3953C29.7649 27.8218 30.3462 27.4644 30.9791 27.4644H36.0719L27.7548 43.4156C27.0919 44.684 27.9865 46.2194 29.3852 46.2194H85.8267L85.8611 46.2835C86.5238 47.5519 85.6292 49.0872 84.2305 49.0872Z" fill="#A49CA7"/>
<path d="M76.0486 95.1255V103.124C76.0486 103.649 75.8318 104.148 75.4521 104.496L70.7475 108.818C70.4836 109.06 70.0869 109.06 69.8229 108.818L64.9831 104.373C64.7215 104.13 64.3225 104.13 64.0606 104.373L59.2208 108.818C58.9592 109.06 58.5602 109.06 58.2983 108.818L53.4585 104.373C53.1969 104.132 52.7979 104.13 52.536 104.373L47.6962 108.818C47.4346 109.06 47.0356 109.06 46.7737 108.818L41.9339 104.373C41.6723 104.132 41.2733 104.132 41.0114 104.373L36.1739 108.818C35.91 109.06 35.5133 109.06 35.2493 108.818L30.547 104.496C30.1673 104.148 29.9506 103.649 29.9506 103.124V95.1255H76.0486Z" fill="#FED22B"/>
<path d="M39.4678 105.793L36.1748 108.818C35.9108 109.06 35.5141 109.06 35.2502 108.818L30.5479 104.496C30.1682 104.148 29.9514 103.649 29.9514 103.124V95.1255H37.4598V103.124C37.4598 103.649 37.6766 104.148 38.0563 104.496L39.4678 105.793Z" fill="#FDC202"/>
</g>
<defs>
<clipPath id="clip0_401_2111">
<rect width="106" height="109" fill="white"/>
</clipPath>
</defs>
</svg>
