<svg width="50" height="50" viewBox="0 0 50 50" fill="none" xmlns="http://www.w3.org/2000/svg">
<g clip-path="url(#clip0_31_131)">
<mask id="mask0_31_131" style="mask-type:luminance" maskUnits="userSpaceOnUse" x="0" y="0" width="50" height="50">
<path d="M50 0H0V50H50V0Z" fill="white"/>
</mask>
<g mask="url(#mask0_31_131)">
<mask id="mask1_31_131" style="mask-type:luminance" maskUnits="userSpaceOnUse" x="0" y="0" width="50" height="50">
<path d="M50 0H0V50H50V0Z" fill="white"/>
</mask>
<g mask="url(#mask1_31_131)">
<path d="M37.6348 10.0407C38.0394 10.0407 38.3672 9.71289 38.3672 9.3083V8.32373C38.3672 7.91914 38.0394 7.59131 37.6348 7.59131C37.2302 7.59131 36.9023 7.91914 36.9023 8.32373V9.3083C36.9023 9.71279 37.2303 10.0407 37.6348 10.0407Z" fill="white"/>
<path d="M45.6035 16.5444C45.1989 16.5444 44.8711 16.8723 44.8711 17.2769C44.8711 17.6814 45.1989 18.0093 45.6035 18.0093H46.588C46.9926 18.0093 47.3204 17.6814 47.3204 17.2769C47.3204 16.8723 46.9926 16.5444 46.588 16.5444H45.6035Z" fill="white"/>
<path d="M28.6816 16.5444C28.2771 16.5444 27.9492 16.8723 27.9492 17.2769C27.9492 17.6814 28.2771 18.0093 28.6816 18.0093H29.6662C30.0708 18.0093 30.3986 17.6814 30.3986 17.2769C30.3986 16.8723 30.0708 16.5444 29.6662 16.5444H28.6816Z" fill="white"/>
<path d="M40.8474 39.9399C39.5466 39.9399 38.4883 40.9982 38.4883 42.2989C38.4883 43.5996 39.5466 44.6579 40.8474 44.6579C42.148 44.6579 43.2063 43.5996 43.2063 42.2989C43.2063 40.9982 42.148 39.9399 40.8474 39.9399ZM40.8474 43.1931C40.3542 43.1931 39.9531 42.792 39.9531 42.2989C39.9531 41.8059 40.3542 41.4048 40.8474 41.4048C41.3404 41.4048 41.7415 41.8059 41.7415 42.2989C41.7415 42.792 41.3404 43.1931 40.8474 43.1931Z" fill="white"/>
<path d="M14.1035 42.2989C14.1035 43.5996 15.1618 44.6579 16.4626 44.6579C17.7634 44.6579 18.8216 43.5996 18.8216 42.2989C18.8216 40.9982 17.7634 39.9399 16.4626 39.9399C15.1618 39.9399 14.1035 40.9981 14.1035 42.2989ZM17.3567 42.2989C17.3567 42.792 16.9557 43.1931 16.4626 43.1931C15.9695 43.1931 15.5684 42.792 15.5684 42.2989C15.5684 41.8059 15.9695 41.4048 16.4626 41.4048C16.9557 41.4048 17.3567 41.8059 17.3567 42.2989Z" fill="white"/>
<path d="M21.4352 31.0577C22.2621 30.253 22.3574 28.8531 21.4181 27.939L18.3738 24.9756C17.2756 23.9071 15.5126 23.9307 14.4437 25.0287L13.8736 25.6145C13.5915 25.9044 13.5977 26.3681 13.8876 26.6501L16.8221 29.5066L13.8876 32.3629C13.7484 32.4984 13.6687 32.6836 13.6661 32.8778C13.6634 33.072 13.7382 33.2593 13.8736 33.3986L14.4437 33.9843C15.5161 35.086 17.2753 35.1069 18.3738 34.0373L21.4352 31.0577ZM15.4934 32.9627L15.4341 32.9019L18.3831 30.0315C18.5247 29.8937 18.6047 29.7043 18.6047 29.5067C18.6047 29.309 18.5248 29.1197 18.3831 28.9819L15.4341 26.1114L15.4934 26.0505C15.9991 25.5311 16.8328 25.5199 17.3521 26.0253L20.3965 28.9887C20.7214 29.3049 20.6779 29.7506 20.4135 30.008L17.3521 32.9878C16.8352 33.4909 16.0032 33.4865 15.4934 32.9627Z" fill="white"/>
<path d="M36.9023 17.277C36.9023 17.6815 37.2302 18.0094 37.6348 18.0094H40.1256C40.5302 18.0094 40.858 17.6815 40.858 17.277C40.858 16.8724 40.5302 16.5445 40.1256 16.5445H38.3672V11.9834C38.3672 11.5788 38.0394 11.251 37.6348 11.251C37.2302 11.251 36.9023 11.5788 36.9023 11.9834V17.277Z" fill="white"/>
<path d="M12.5117 11.0176H25.1231C25.5277 11.0176 25.8556 10.6897 25.8556 10.2852C25.8556 9.88057 25.5277 9.55273 25.1231 9.55273H12.5117C12.1072 9.55273 11.7793 9.88057 11.7793 10.2852C11.7793 10.6897 12.1072 11.0176 12.5117 11.0176Z" fill="white"/>
<path d="M9.45508 14.8013H22.5461C22.9506 14.8013 23.2785 14.4734 23.2785 14.0688C23.2785 13.6643 22.9506 13.3364 22.5461 13.3364H9.45508C9.05059 13.3364 8.72266 13.6643 8.72266 14.0688C8.72266 14.4734 9.05059 14.8013 9.45508 14.8013Z" fill="white"/>
<path d="M16.9433 16.7109C16.5388 16.7109 16.2109 17.0388 16.2109 17.4434C16.2109 17.8479 16.5388 18.1758 16.9433 18.1758H23.4575C23.862 18.1758 24.1899 17.8479 24.1899 17.4434C24.1899 17.0388 23.862 16.7109 23.4575 16.7109H16.9433Z" fill="white"/>
<path d="M10.7695 16.7109C10.365 16.7109 10.0371 17.0388 10.0371 17.4434C10.0371 17.8479 10.365 18.1758 10.7695 18.1758H14.0207C14.4252 18.1758 14.7531 17.8479 14.7531 17.4434C14.7531 17.0388 14.4252 16.7109 14.0207 16.7109H10.7695Z" fill="white"/>
<path d="M0.732422 28.2622H3.41113C3.81563 28.2622 4.14355 27.9344 4.14355 27.5298C4.14355 27.1252 3.81563 26.7974 3.41113 26.7974H0.732422C0.32793 26.7974 0 27.1252 0 27.5298C0 27.9344 0.32793 28.2622 0.732422 28.2622Z" fill="white"/>
<path d="M2.68555 34.7139H0.732422C0.32793 34.7139 0 35.0417 0 35.4463C0 35.8509 0.32793 36.1787 0.732422 36.1787H2.68555C3.09004 36.1787 3.41797 35.8509 3.41797 35.4463C3.41797 35.0417 3.09004 34.7139 2.68555 34.7139Z" fill="white"/>
<path d="M11.3016 28.5112H8.68945C8.28496 28.5112 7.95703 28.8391 7.95703 29.2437C7.95703 29.6482 8.28496 29.9761 8.68945 29.9761H11.3016C11.7061 29.9761 12.034 29.6482 12.034 29.2437C12.034 28.8391 11.7061 28.5112 11.3016 28.5112Z" fill="white"/>
<path d="M44.5321 27.5393C47.9257 25.253 50 21.4003 50 17.2769C50 15.3171 49.5542 13.4418 48.6748 11.7034C48.4923 11.3425 48.0516 11.1979 47.6907 11.3804C47.3298 11.5629 47.1851 12.0036 47.3677 12.3645C48.1423 13.8961 48.5352 15.5489 48.5352 17.2769C48.5352 20.9853 46.6314 24.4451 43.5314 26.4441L39.2673 21.778C38.772 21.2358 38.0666 20.925 37.3323 20.925H27.361C26.9454 19.7563 26.7346 18.5313 26.7346 17.2769C26.7346 11.2664 31.6244 6.37666 37.6349 6.37666C40.7526 6.37666 43.7277 7.71689 45.7973 10.0537C46.0652 10.3564 46.5281 10.3848 46.8312 10.1164C47.134 9.84824 47.1621 9.38535 46.8938 9.08252C45.8179 7.86748 44.5255 6.89092 43.1011 6.18848V3.70791C43.1011 2.80654 42.3678 2.07324 41.4664 2.07324H33.8034C32.9021 2.07324 32.1687 2.80654 32.1687 3.70791V6.18779C28.0849 8.20908 25.2697 12.42 25.2697 17.2769C25.2697 18.5253 25.4545 19.7479 25.8183 20.925H7.14141C6.20713 20.925 5.43965 21.6473 5.36475 22.5627H2.68555C2.28105 22.5627 1.95312 22.8905 1.95312 23.2951C1.95312 23.6997 2.28105 24.0275 2.68555 24.0275H5.35732V31.1068H0.732422C0.32793 31.1068 0 31.4347 0 31.8393C0 32.2438 0.32793 32.5717 0.732422 32.5717H5.35732V34.714C4.95605 34.7177 4.63174 35.0438 4.63174 35.446C4.63174 35.8481 4.95596 36.1743 5.35732 36.178V41.3589C5.35732 42.1278 5.98291 42.7533 6.75176 42.7533H8.72236V43.2632H6.43721C6.03271 43.2632 5.70479 43.591 5.70479 43.9956C5.70479 44.4002 6.03271 44.728 6.43721 44.728H9.45479C9.85928 44.728 10.1872 44.4002 10.1872 43.9956V42.7533H10.8555C11.0879 45.6443 13.5132 47.9262 16.463 47.9262C17.4364 47.9262 18.3974 47.6722 19.2418 47.1917C19.5934 46.9916 19.7161 46.5444 19.5161 46.1929C19.3161 45.8412 18.869 45.7187 18.5173 45.9185C17.8933 46.2736 17.1828 46.4613 16.463 46.4613C14.1678 46.4613 12.3004 44.594 12.3004 42.2987C12.3004 40.0034 14.1678 38.1361 16.463 38.1361C18.7582 38.1361 20.6256 40.0034 20.6256 42.2987C20.6256 42.9245 20.4899 43.5264 20.2224 44.0876C20.0482 44.4527 20.2032 44.8898 20.5683 45.0639C20.9335 45.2379 21.3705 45.083 21.5446 44.718C21.8414 44.0955 22.0161 43.4362 22.0703 42.7533H35.2396C35.4721 45.6443 37.8974 47.9262 40.8472 47.9262C43.797 47.9262 46.2222 45.6443 46.4547 42.7533H47.9624C49.0859 42.7533 50 41.8393 50 40.7157V34.537C50 33.8826 49.7569 33.2562 49.3154 32.7731L44.5321 27.5393ZM33.6336 3.70791C33.6336 3.61426 33.7098 3.53809 33.8034 3.53809H41.4664C41.5601 3.53809 41.6362 3.61426 41.6362 3.70791V5.57959C40.3607 5.14277 39.0103 4.91191 37.6349 4.91191C36.2352 4.91191 34.8892 5.14609 33.6335 5.57666L33.6336 3.70791ZM38.186 22.7663L45.8081 31.1068H40.3445C39.9399 31.1068 39.6121 31.4347 39.6121 31.8393C39.6121 32.2438 39.9399 32.5717 40.3445 32.5717H47.1468L48.2342 33.7616C48.6775 34.2468 48.4912 34.7732 48.5352 35.3319H47.9705C47.5659 35.3319 47.2381 35.6598 47.2381 36.0644C47.2381 36.4689 47.5659 36.7968 47.9705 36.7968H48.5352V37.8806H44.3261C43.3679 37.1244 42.1598 36.6715 40.8473 36.6715C39.5348 36.6715 38.3267 37.1244 37.3685 37.8806H29.3883V22.3899H32.5472V31.0977C32.5472 31.9104 33.2084 32.5718 34.0212 32.5718H37.4164C37.821 32.5718 38.1488 32.2439 38.1488 31.8394C38.1488 31.4348 37.821 31.1069 37.4164 31.1069H34.0212C34.0161 31.1069 34.012 31.1027 34.012 31.0977V22.3899H37.3325C37.6563 22.3899 37.9675 22.5271 38.186 22.7663ZM35.3123 41.2887H29.3881V39.3454H36.0598C35.6973 39.9308 35.44 40.5873 35.3123 41.2887ZM21.2503 39.3454H27.9232V41.2887H21.9978C21.87 40.5873 21.6128 39.9308 21.2503 39.3454ZM6.82217 39.3454H11.6755C11.313 39.9308 11.0558 40.5873 10.928 41.2887H6.82217V39.3454ZM12.9841 37.8806H6.82217V36.1785H9.996C10.4005 36.1785 10.7284 35.8507 10.7284 35.4461C10.7284 35.0415 10.4005 34.7137 9.996 34.7137H6.82217V32.5717H9.996C10.4005 32.5717 10.7284 32.2438 10.7284 31.8393C10.7284 31.4347 10.4005 31.1068 9.996 31.1068H6.82217V22.7092C6.82217 22.5331 6.96533 22.3898 7.14141 22.3898H27.9232V37.8805H19.9418C18.9836 37.1243 17.7755 36.6714 16.463 36.6714C15.1505 36.6714 13.9424 37.1244 12.9841 37.8806ZM40.8472 46.4615C38.5519 46.4615 36.6846 44.5942 36.6846 42.2989C36.6846 40.0036 38.5519 38.1363 40.8472 38.1363C43.1425 38.1363 45.0098 40.0036 45.0098 42.2989C45.0098 44.5942 43.1425 46.4615 40.8472 46.4615ZM47.9623 41.2887H46.3819C46.2542 40.5873 45.997 39.9308 45.6345 39.3454H48.5352V40.7159C48.5352 41.0317 48.2782 41.2887 47.9623 41.2887Z" fill="white"/>
</g>
</g>
</g>
<defs>
<clipPath id="clip0_31_131">
<rect width="50" height="50" fill="white"/>
</clipPath>
</defs>
</svg>
