<svg width="132" height="132" viewBox="0 0 132 132" fill="none" xmlns="http://www.w3.org/2000/svg">
<path d="M61.875 5.15625C53.6699 5.15625 45.8008 8.41573 39.9989 14.2176C34.197 20.0195 30.9375 27.8886 30.9375 36.0938V55.6875H66V9.28125C66 8.18723 65.5654 7.13802 64.7918 6.36443C64.0182 5.59085 62.969 5.15625 61.875 5.15625Z" fill="#A24F00"/>
<path d="M70.125 5.15625C78.3301 5.15625 86.1992 8.41573 92.0011 14.2176C97.803 20.0195 101.062 27.8886 101.062 36.0938V55.6875H66V9.28125C66 8.18723 66.4346 7.13802 67.2082 6.36443C67.9818 5.59085 69.031 5.15625 70.125 5.15625Z" fill="#AA5E16"/>
<path d="M36.3825 49.5C36.3825 49.5 36.3825 45.375 31.2263 45.375C26.07 45.375 22.9763 62.9062 36.3825 70.125V49.5Z" fill="#FAE0BB"/>
<path d="M95.6176 49.5C95.6176 49.5 95.6176 45.375 100.774 45.375C105.93 45.375 109.024 62.9062 95.6176 70.125V49.5Z" fill="#FAE0BB"/>
<path d="M36.3824 53.625C36.3824 53.625 34.3199 49.5 32.2574 49.5C30.1949 49.5 30.1949 54.6562 30.1949 54.6562L36.3824 63.9375V53.625Z" fill="#EEBF90"/>
<path d="M95.6176 53.625C95.6176 53.625 97.6801 49.5 99.7426 49.5C101.805 49.5 101.805 54.6562 101.805 54.6562L95.6176 63.9375V53.625Z" fill="#EEBF90"/>
<path d="M48.4688 78.375V109.312C48.4478 110.21 48.1343 111.077 47.5759 111.781C47.0175 112.484 46.2448 112.986 45.375 113.211L5.15625 123.75V126.844H126.844V123.75L86.625 113.211C85.7552 112.986 84.9824 112.484 84.4241 111.781C83.8657 111.077 83.5522 110.21 83.5312 109.312V78.375H48.4688Z" fill="#EEBF90"/>
<path d="M97.9688 58.7812C97.9688 73.2188 79.4062 102.094 66 102.094C52.5938 102.094 34.0312 73.2188 34.0312 58.7812C34.0312 36.5681 43.7869 27.8438 66 27.8438C88.2131 27.8438 97.9688 36.5681 97.9688 58.7812Z" fill="#F6D2A6"/>
<path d="M50.5312 64.9687C48.6582 65.1434 46.7859 64.6277 45.2666 63.5186C43.7472 62.4095 42.6855 60.7833 42.2812 58.9462C42.2374 58.6727 42.3041 58.393 42.4666 58.1687C42.629 57.9443 42.8739 57.7937 43.1474 57.7499C43.4209 57.7062 43.7006 57.7729 43.925 57.9353C44.1493 58.0978 44.2999 58.3427 44.3437 58.6162C44.3437 58.7812 45.1274 62.9062 50.5312 62.9062C55.9349 62.9062 56.7187 58.7812 56.7187 58.6162C56.7624 58.3427 56.9131 58.0978 57.1374 57.9353C57.3617 57.7729 57.6414 57.7062 57.9149 57.7499C58.1884 57.7937 58.4334 57.9443 58.5958 58.1687C58.7583 58.393 58.825 58.6727 58.7812 58.9462C58.3769 60.7833 57.3152 62.4095 55.7958 63.5186C54.2765 64.6277 52.4042 65.1434 50.5312 64.9687Z" fill="#7E3611"/>
<path d="M81.4687 64.9687C79.5957 65.1434 77.7234 64.6277 76.2041 63.5186C74.6847 62.4095 73.623 60.7833 73.2187 58.9462C73.1749 58.6727 73.2416 58.393 73.4041 58.1687C73.5665 57.9443 73.8114 57.7937 74.0849 57.7499C74.3584 57.7062 74.6381 57.7729 74.8625 57.9353C75.0868 58.0978 75.2374 58.3427 75.2812 58.6162C75.2812 58.7812 76.0649 62.9062 81.4687 62.9062C86.8724 62.9062 87.6562 58.7812 87.6562 58.6162C87.6999 58.3427 87.8506 58.0978 88.0749 57.9353C88.2992 57.7729 88.5789 57.7062 88.8524 57.7499C89.1259 57.7937 89.3709 57.9443 89.5333 58.1687C89.6958 58.393 89.7625 58.6727 89.7187 58.9462C89.3144 60.7833 88.2527 62.4095 86.7333 63.5186C85.214 64.6277 83.3417 65.1434 81.4687 64.9687Z" fill="#7E3611"/>
<path d="M66.0001 89.7187C59.1526 89.7187 57.8532 86.0681 57.7501 85.9237C57.6598 85.6639 57.6765 85.3788 57.7964 85.1313C57.9163 84.8837 58.1296 84.6939 58.3894 84.6037C58.6493 84.5134 58.9343 84.5301 59.1818 84.65C59.4294 84.7699 59.6192 84.9832 59.7094 85.2431C59.7094 85.3668 60.7407 87.6562 65.8969 87.6562C71.0532 87.6562 72.0844 85.3462 72.0844 85.2431C72.1816 84.9898 72.3746 84.785 72.6216 84.6731C72.8687 84.5611 73.15 84.551 73.4044 84.6449C73.5304 84.6869 73.6469 84.7532 73.7472 84.8402C73.8475 84.9272 73.9297 85.0331 73.9891 85.1518C74.0484 85.2706 74.0838 85.3999 74.0932 85.5323C74.1026 85.6648 74.0858 85.7977 74.0438 85.9237C74.1469 86.0681 72.8476 89.7187 66.0001 89.7187Z" fill="#FF6B56"/>
<path d="M66 33C49.5 33 36.0938 47.7675 36.0938 66C36.0938 84.2325 54.285 102.094 66 102.094C77.715 102.094 95.9062 84.2325 95.9062 66C95.9062 47.7675 82.5 33 66 33ZM40.2188 59.8125C40.2188 55.8319 44.8387 52.5938 50.5312 52.5938C56.2237 52.5938 60.8438 55.8319 60.8438 59.8125C60.8438 63.7931 56.2237 67.0312 50.5312 67.0312C44.8387 67.0312 40.2188 63.7931 40.2188 59.8125ZM66 92.8125C59.1731 92.8125 53.625 90.2756 53.625 87.1406C53.625 84.0056 59.1731 81.4688 66 81.4688C72.8269 81.4688 78.375 84.0056 78.375 87.1406C78.375 90.2756 72.8269 92.8125 66 92.8125ZM81.4688 67.0312C75.7762 67.0312 71.1562 63.7931 71.1562 59.8125C71.1562 55.8319 75.7762 52.5938 81.4688 52.5938C87.1613 52.5938 91.7812 55.8319 91.7812 59.8125C91.7812 63.7931 87.1613 67.0312 81.4688 67.0312Z" fill="#F0EDFA"/>
<path d="M61.875 72.1875L59.8125 77.3438H72.1875L70.125 72.1875L75.2812 80.4375H56.7188L61.875 72.1875Z" fill="#DFDCE8"/>
<path d="M18.5625 74.25L15.4688 82.5L18.5625 90.75L21.6562 82.5L18.5625 74.25Z" fill="#FFFF34"/>
<path d="M110.344 10.3125L107.25 18.5625L110.344 26.8125L113.438 18.5625L110.344 10.3125Z" fill="#FFFF34"/>
<path d="M115.5 50.1807L113.438 55.6875L115.5 61.1944L117.562 55.6875L115.5 50.1807Z" fill="#FFFF34"/>
<path d="M18.5625 38.1562L16.5 43.6631L18.5625 49.1494L20.625 43.6631L18.5625 38.1562Z" fill="#FFFF34"/>
<path d="M100.031 87.6562L97.9688 93.1631L100.031 98.6494L102.094 93.1631L100.031 87.6562Z" fill="#FFFF34"/>
</svg>
