<svg width="132" height="132" viewBox="0 0 132 132" fill="none" xmlns="http://www.w3.org/2000/svg">
<g clip-path="url(#clip0_996_16625)">
<path d="M29.8925 0H24.2232C21.5902 0 18.7349 2.13417 18.7349 4.76695L20.0918 29.5286L27.1492 35.7434L34.6597 29.5286V4.76695C34.6595 2.13417 32.5253 0 29.8925 0Z" fill="#FFE8C8"/>
<path d="M24.8588 0H18.5535C15.9207 0 13.7865 2.13417 13.7865 4.76695V29.5286L17.3964 32.5679L20.0918 29.5286V4.76695C20.0918 2.13417 22.226 0 24.8588 0Z" fill="#FAB684"/>
<path d="M113.446 0H105.552C102.919 0 100.708 2.13417 100.708 4.76695L101.214 29.5286L108.994 35.2654L118.213 29.5286V4.76695C118.213 2.13417 116.079 0 113.446 0Z" fill="#FFE8C8"/>
<path d="M101.214 4.76695C101.214 2.13417 103.348 0 105.981 0H102.107C99.4746 0 97.3405 2.13417 97.3405 4.76695V29.5286L99.3055 31.7597L101.214 29.5286V4.76695Z" fill="#FAB684"/>
<path d="M51.8785 67.2504H85.1864L91.4935 55.918C91.4935 46.5414 97.1192 38.5463 93.3136 31.5364C92.8862 30.749 92.7282 27.1404 92.0303 26.458C91.8534 26.285 91.675 26.1141 91.4948 25.9447C90.7951 25.287 85.1384 25.1274 84.3895 24.5249C83.5923 23.8835 87.7 22.803 86.8511 22.2278C81.8317 18.8283 75.9384 16.6217 69.5781 16.0151C68.4004 15.9027 66.1472 16.4773 64.9401 16.4773C47.5145 19.3934 35.4672 33.0621 35.4672 53.6232L51.8785 67.2504Z" fill="#ECF4FF"/>
<path d="M53.8727 39.189C54.2177 39.189 54.567 39.0993 54.8854 38.9111L63.8578 33.6007C71.3704 29.1547 79.9489 26.5595 88.6663 26.0965L91.4935 25.9462C90.0492 24.5883 88.4977 23.3433 86.8508 22.228C78.0493 22.9424 69.4304 25.6732 61.8288 30.1723L52.8562 35.4827C51.9095 36.0429 51.5962 37.2644 52.1565 38.2116C52.5285 38.8399 53.1916 39.189 53.8727 39.189Z" fill="#CBE2FF"/>
<path d="M103.229 53.0746C103.229 42.6451 98.9389 33.2189 92.0285 26.4598V40.8326C92.0285 41.2046 91.8851 41.5558 91.6248 41.8213C88.293 45.2206 86.4582 49.7143 86.4582 54.4737V66.9263C86.4582 67.0349 86.4628 67.1424 86.4662 67.2502H103.229V53.0746Z" fill="#CBE2FF"/>
<path d="M106.646 132C110.412 132 112.084 127.201 109.088 124.919C107.512 123.717 105.704 122.782 103.722 122.19L84.0154 116.304C80.5857 115.279 78.2355 112.124 78.2355 108.545V108.185L59.9128 109.143L57.8729 111.948C57.8729 115.527 52.2513 118.764 48.8214 119.788L30.3999 125.27C28.4181 125.862 27.5784 125.471 26.0016 126.672C23.0061 128.954 23.4243 132 27.1902 132H106.646Z" fill="#FFE8C8"/>
<path d="M35.5982 126.27L55.3052 120.383C58.7348 119.359 61.0851 116.967 61.0851 114.468V114.426C61.0851 112.328 62.832 110.631 64.9272 110.738C65.4019 110.762 65.8775 110.774 66.3537 110.774C70.4586 110.774 74.5163 109.884 78.235 108.185V90.6737H53.7642V108.545C53.7642 112.124 51.414 115.279 47.9843 116.304L28.2774 122.19C26.2956 122.782 24.4881 123.717 22.9113 124.918C19.916 127.201 21.5879 132 25.3538 132H27.1902C29.2826 129.333 32.1809 127.291 35.5982 126.27Z" fill="#FAB684"/>
<path d="M69.6542 16.0241C68.4518 15.9071 67.2331 15.8455 66 15.8455C45.4389 15.8455 28.7706 32.5136 28.7706 53.0749V67.2504H45.5338C45.5371 67.1427 45.5418 67.0352 45.5418 66.9266V54.7494C45.5418 49.9528 43.8753 45.1691 40.4085 41.8541C40.1269 41.5849 39.9715 41.2201 39.9715 40.8326V38.907C39.9715 37.198 40.4286 35.5186 41.3031 34.0504C47.2083 24.1377 57.5865 17.2 69.6542 16.0241Z" fill="#CBE2FF"/>
<path d="M79.3351 101.565L78.0004 102.337C75.4947 103.786 72.7848 104.732 70.0123 105.173C64.9352 105.981 61.9278 103.376 57.299 100.793C45.9514 94.4612 40.4711 83.1595 40.4711 70.1647L40.2298 63.8029C40.2298 46.5521 55.7581 33.4805 64.7251 33.4805C65.9634 33.4805 68.4598 32.6398 69.6606 32.7801C85.1864 34.5925 97.2352 47.7907 97.2352 63.8029V70.5344C97.235 83.3317 90.413 95.1581 79.3351 101.565Z" fill="#FFE8C8"/>
<path d="M62.34 102.514L60.4658 101.468C49.1181 95.1366 42.0855 83.1594 42.0855 70.1649V63.8031C42.0855 47.7909 54.1346 34.5953 69.6604 32.7826C68.4595 32.6424 67.2385 32.5681 66.0002 32.5681C48.7495 32.5681 34.7652 46.5526 34.7652 63.8031V70.1649C34.7652 83.1597 41.7978 95.1366 53.1454 101.468L55.0197 102.514C59.6485 105.097 64.9354 105.978 70.0123 105.17C67.3576 104.748 64.7588 103.864 62.34 102.514Z" fill="#FAB684"/>
<path d="M52.7871 72.0599C50.6565 72.0599 48.5265 71.4476 46.6676 70.222L46.0819 69.8363C45.1633 69.2309 44.9091 67.9955 45.5142 67.0769C46.1193 66.1586 47.3547 65.9039 48.2735 66.5092L48.8598 66.8954C51.2459 68.4683 54.3285 68.4683 56.7138 66.8959L57.3006 66.5092C58.2192 65.9041 59.4546 66.1583 60.0597 67.0769C60.6648 67.9955 60.4106 69.2309 59.492 69.8363L58.9057 70.2225C57.0477 71.4474 54.9171 72.0599 52.7871 72.0599Z" fill="#E59965"/>
<path d="M79.2132 72.0599C77.0826 72.0599 74.9525 71.4476 73.0937 70.222L72.508 69.8363C71.5891 69.2309 71.3352 67.9955 71.9403 67.0769C72.5453 66.1586 73.7808 65.9039 74.6994 66.5092L75.2856 66.8954C77.6717 68.4683 80.7544 68.4683 83.1396 66.8959L83.7264 66.5092C84.6453 65.9041 85.8804 66.1583 86.4858 67.0769C87.0909 67.9955 86.8369 69.2309 85.9181 69.8363L85.3318 70.2225C83.4735 71.4474 81.3432 72.0599 79.2132 72.0599Z" fill="#E59965"/>
<path d="M66.0003 91.4696C63.8697 91.4696 61.7397 90.8573 59.8808 89.6316L59.2951 89.2459C58.3762 88.6406 58.1223 87.4052 58.7274 86.4866C59.3325 85.5683 60.5679 85.3135 61.4865 85.9189L62.0727 86.3051C64.4588 87.878 67.5415 87.878 69.9267 86.3056L70.5135 85.9189C71.4324 85.3138 72.6676 85.568 73.2729 86.4866C73.878 87.4052 73.624 88.6406 72.7052 89.2459L72.1189 89.6322C70.2606 90.8568 68.1301 91.4696 66.0003 91.4696Z" fill="#E59965"/>
<path d="M18.7349 38.5512C18.7349 46.6261 19.4395 54.6526 21.8903 62.347L23.2289 66.5494C24.884 71.7459 27.1989 75.8912 30.8779 79.917L39.5309 90.9843C41.1288 92.7326 41.5315 94.2284 43.1402 92.4902L43.439 92.7532C43.5009 92.6864 44.8054 93.3505 44.8622 93.2807C45.9112 91.9836 46.0612 90.1624 45.2141 88.704L35.3803 71.776C36.2231 71.776 35.1911 68.6464 35.8818 68.2682C36.3824 67.9939 38.654 70.5488 39.0276 70.1229C39.776 69.2696 40.2298 68.1509 40.2298 66.9266V54.4742C40.2298 51.1332 38.9201 47.9255 36.5815 45.5397C35.3494 44.2826 34.6595 42.5929 34.6595 40.8328V29.5291H20.0918L18.7349 38.5512Z" fill="#FE8187"/>
<path d="M99.634 40.8326C99.634 42.5927 98.9438 44.2824 97.712 45.5395L97.2353 46.8553C94.8969 49.2414 94.6525 51.1332 94.6525 54.4742L94.8441 64.9061C94.8441 67.5845 93.9417 71.7763 96.6201 71.7763L86.7864 88.7042C85.8933 90.2416 86.1081 92.1816 87.3157 93.4864C88.9244 95.2246 91.6753 95.2158 93.2732 93.4676L105.08 80.5481C108.759 76.5223 111.522 71.7466 113.177 66.5499L114.515 62.3475C116.966 54.6534 118.213 46.6269 118.213 38.5517V29.5291H101.214L99.634 40.8326Z" fill="#FE8187"/>
<path d="M13.7865 38.5512C13.7865 46.6262 15.0341 54.6527 17.4846 62.3471L18.8231 66.5494C20.4783 71.7459 23.2407 76.5216 26.9197 80.5476L38.7268 93.4671C40.3247 95.2153 43.0755 95.2241 44.6843 93.4859C44.7462 93.4192 44.8039 93.3495 44.8606 93.2794L33.225 80.5474C29.5461 76.5216 26.7836 71.7459 25.1284 66.5492L23.7899 62.3468C21.3391 54.6527 20.0916 46.6262 20.0916 38.551V29.5283H13.7865V38.5512Z" fill="#FF646F"/>
<path d="M99.2787 45.5526C100.513 44.2893 101.214 42.5989 101.214 40.8326V29.5288H97.3402V40.8326C97.3402 42.5927 96.65 44.2824 95.4182 45.5395C93.0798 47.9255 91.7699 51.1332 91.7699 54.474V66.9263C91.7699 69.6042 93.9404 71.775 96.6181 71.7758L99.5074 66.7783C101.085 64.0504 101.915 60.9549 101.915 57.8039V54.2167C101.915 53.1261 101.075 52.1751 99.9848 52.1421C98.8567 52.108 97.9314 53.0124 97.9314 54.1331V57.8039C97.9314 60.3931 97.3546 62.3231 96.7802 63.6031C96.5186 64.1863 95.6433 63.9924 95.6433 63.3533V54.4737C95.6433 51.1394 96.9483 47.9374 99.2787 45.5526Z" fill="#FF646F"/>
<path d="M35.9393 64.7847C34.7142 62.6658 34.0665 60.2521 34.0665 57.8044V54.1337C34.0665 53.0334 33.1745 52.1418 32.0747 52.1418C30.9743 52.1418 30.0828 53.0336 30.0828 54.1337V57.8044C30.0828 60.9513 30.9153 64.0546 32.4905 66.7789L35.3804 71.7763C36.8342 71.7763 38.1351 71.1334 39.024 70.1199L35.9393 64.7847Z" fill="#FF646F"/>
</g>
<defs>
<clipPath id="clip0_996_16625">
<rect width="132" height="132" fill="white"/>
</clipPath>
</defs>
</svg>
