<svg width="267" height="147" viewBox="0 0 267 147" fill="none" xmlns="http://www.w3.org/2000/svg">
<g clip-path="url(#clip0_2344_2935)">
<path d="M103.914 106.247H43.0862C31.8881 106.247 22.8103 115.263 22.8103 126.385C22.8103 137.507 31.8881 146.523 43.0862 146.523H103.914C115.112 146.523 124.19 137.507 124.19 126.385C124.19 115.263 115.112 106.247 103.914 106.247Z" fill="#4FB96F"/>
<path d="M136.862 53.3846H10.1379C4.53891 53.3846 0 57.8927 0 63.4536V83.5915C0 89.1525 4.53891 93.6605 10.1379 93.6605H136.862C142.461 93.6605 147 89.1525 147 83.5915V63.4536C147 57.8927 142.461 53.3846 136.862 53.3846Z" fill="#3B96D2"/>
<path d="M136.862 0.522583H10.1379C4.53891 0.522583 0 5.03061 0 10.5915V30.7295C0 36.2904 4.53891 40.7984 10.1379 40.7984H136.862C142.461 40.7984 147 36.2904 147 30.7295V10.5915C147 5.03061 142.461 0.522583 136.862 0.522583Z" fill="#3B96D2"/>
<path fill-rule="evenodd" clip-rule="evenodd" d="M40.5517 68.4881V78.5571C40.5434 81.3341 38.2788 83.5833 35.4828 83.5916H15.2069C12.4108 83.5833 10.1463 81.3341 10.1379 78.5571V68.4881C10.1341 67.0481 10.7636 65.6781 11.8614 64.7374L22.2781 72.5157C24.1018 73.8502 26.5878 73.8502 28.4115 72.5157L38.8283 64.7374C39.9261 65.6781 40.5556 67.0481 40.5517 68.4881Z" fill="#EFC319"/>
<path fill-rule="evenodd" clip-rule="evenodd" d="M38.8283 64.7374L28.4116 72.5157C26.5878 73.8501 24.1019 73.8501 22.2781 72.5157L11.8614 64.7374C12.774 63.9064 13.9688 63.4479 15.2069 63.4536H35.4828C36.7209 63.4479 37.9156 63.9064 38.8283 64.7374Z" fill="#F2D45B"/>
<path d="M25.3448 20.6605C28.1443 20.6605 30.4138 18.4065 30.4138 15.626C30.4138 12.8456 28.1443 10.5916 25.3448 10.5916C22.5453 10.5916 20.2758 12.8456 20.2758 15.626C20.2758 18.4065 22.5453 20.6605 25.3448 20.6605Z" fill="#FCD6AC"/>
<path fill-rule="evenodd" clip-rule="evenodd" d="M32.9483 28.2122C32.9483 29.6025 31.8136 30.7295 30.4138 30.7295H20.2759C18.8761 30.7295 17.7414 29.6025 17.7414 28.2122C17.7414 24.0415 21.1456 20.6605 25.3448 20.6605C29.5441 20.6605 32.9483 24.0415 32.9483 28.2122Z" fill="#285680"/>
<path fill-rule="evenodd" clip-rule="evenodd" d="M65.8965 71.0053H53.2241C51.8244 71.0053 50.6896 69.8783 50.6896 68.4881C50.6896 67.0978 51.8244 65.9708 53.2241 65.9708H65.8965C67.2963 65.9708 68.431 67.0978 68.431 68.4881C68.431 69.8783 67.2963 71.0053 65.8965 71.0053Z" fill="white"/>
<path fill-rule="evenodd" clip-rule="evenodd" d="M131.793 81.0743H53.2241C51.8244 81.0743 50.6896 79.9473 50.6896 78.557C50.6896 77.1668 51.8244 76.0398 53.2241 76.0398H131.793C133.193 76.0398 134.328 77.1668 134.328 78.557C134.328 79.9473 133.193 81.0743 131.793 81.0743Z" fill="white"/>
<path fill-rule="evenodd" clip-rule="evenodd" d="M65.8965 18.1432H53.2241C51.8244 18.1432 50.6896 17.0162 50.6896 15.626C50.6896 14.2358 51.8244 13.1088 53.2241 13.1088H65.8965C67.2963 13.1088 68.431 14.2358 68.431 15.626C68.431 17.0162 67.2963 18.1432 65.8965 18.1432Z" fill="white"/>
<path fill-rule="evenodd" clip-rule="evenodd" d="M131.793 28.2122H53.2241C51.8244 28.2122 50.6896 27.0852 50.6896 25.695C50.6896 24.3047 51.8244 23.1777 53.2241 23.1777H131.793C133.193 23.1777 134.328 24.3047 134.328 25.695C134.328 27.0852 133.193 28.2122 131.793 28.2122Z" fill="white"/>
<path fill-rule="evenodd" clip-rule="evenodd" d="M65.8965 136.454C65.2244 136.453 64.5798 136.188 64.1046 135.716L59.0357 130.682C58.0752 129.694 58.0889 128.124 59.0666 127.153C60.0442 126.182 61.625 126.168 62.6194 127.122L66.1348 130.614L84.6517 116.819C85.7715 115.985 87.3601 116.21 88.2 117.323C89.0398 118.435 88.8129 120.013 87.6931 120.847L67.4172 135.95C66.9791 136.278 66.4451 136.455 65.8965 136.454Z" fill="white"/>
</g>
<g clip-path="url(#clip1_2344_2935)">
<path d="M172 100.023H183.875C183.875 80.7614 199.825 65.1476 219.5 65.1476L223.393 59.5191L219.5 53.5226C193.267 53.5226 172 74.3422 172 100.023Z" fill="#2D9CFF"/>
<path d="M259.19 64.5754C257.995 64.1377 257.853 64.085 256.659 63.6454L253.088 67.142C244.491 58.7266 232.616 53.5226 219.5 53.5226V65.1476C229.338 65.1476 238.244 69.051 244.69 75.3612V75.3631L241.116 78.8615C241.565 80.0294 241.619 80.1693 242.066 81.339L257.893 82.3835L260.257 80.0694L259.19 64.5754Z" fill="#065ED1"/>
<path d="M194.31 124.684V124.682L197.884 121.184C197.435 120.016 197.381 119.876 196.934 118.706L181.107 117.662C180.155 118.592 179.693 119.046 178.743 119.976L179.81 135.47C181.005 135.907 181.147 135.96 182.341 136.4L185.912 132.903C194.509 141.319 206.384 146.523 219.5 146.523L223.393 140.828L219.5 134.898C209.662 134.898 200.756 130.994 194.31 124.684Z" fill="#2D9CFF"/>
<path d="M255.125 100.023C255.125 119.284 239.175 134.898 219.5 134.898V146.523C245.733 146.523 267 125.703 267 100.023H255.125Z" fill="#065ED1"/>
<path d="M195.75 100.023C195.75 112.863 206.384 123.273 219.5 123.273L222.469 100.023L219.5 76.7726C206.384 76.7726 195.75 87.1806 195.75 100.023Z" fill="#FFEC45"/>
<path d="M219.5 76.7726V123.273C232.616 123.273 243.25 112.863 243.25 100.023C243.25 87.1806 232.616 76.7726 219.5 76.7726Z" fill="#FFB74A"/>
<path d="M217.967 97.2971C216.424 97.2971 215.167 96.0692 215.167 94.5579C215.167 93.0467 216.424 91.817 217.967 91.817H219.5L221.077 88.3298L219.5 83.5305H216.717V86.4604C212.694 87.0525 209.601 90.4583 209.601 94.5579C209.601 99.0735 213.355 102.746 217.967 102.746H219.5L221.077 99.9813L219.5 97.2971H217.967Z" fill="#FFB74A"/>
<path d="M217.912 108.228C216.424 108.228 215.212 107.042 215.212 105.583H209.646C209.646 109.649 212.724 113.022 216.717 113.592V116.515H219.5L221.264 111.882L219.5 108.228H217.912Z" fill="#FFB74A"/>
<path d="M221.033 97.2971H219.5V102.746H221.033C222.576 102.746 223.833 103.976 223.833 105.487C223.833 106.998 222.576 108.228 221.033 108.228H219.5V116.515H222.283V113.585C226.306 112.993 229.399 109.587 229.399 105.487C229.399 100.972 225.645 97.2971 221.033 97.2971Z" fill="#FF7C3F"/>
<path d="M220.962 91.817C222.508 91.817 223.766 93.0485 223.766 94.5616H229.332C229.332 90.4837 226.272 87.0925 222.283 86.4713V83.5305H219.5V91.817H220.962Z" fill="#FF7C3F"/>
</g>
<defs>
<clipPath id="clip0_2344_2935">
<rect width="147" height="146" fill="white" transform="translate(0 0.522583)"/>
</clipPath>
<clipPath id="clip1_2344_2935">
<rect width="95" height="93" fill="white" transform="translate(172 53.5226)"/>
</clipPath>
</defs>
</svg>
