<svg width="252" height="115" viewBox="0 0 252 115" fill="none" xmlns="http://www.w3.org/2000/svg">
<g clip-path="url(#clip0_2344_2965)">
<path d="M250.774 115.442V104.3C250.774 88.9169 238.304 76.4467 222.921 76.4467H195.067C179.683 76.4467 167.213 88.9169 167.213 104.3V115.442" fill="#AF4A47"/>
<path d="M214.565 76.4467H195.067C179.683 76.4467 167.213 88.9169 167.213 104.3V115.442H242.418V104.3C242.418 88.9169 229.948 76.4467 214.565 76.4467Z" fill="#E4725F"/>
<path d="M197.852 76.4467L208.994 90.3736L220.135 76.4467" fill="#DB9B7C"/>
<path d="M189.496 59.7345H183.925C179.309 59.7345 175.569 55.9944 175.569 51.3784C175.569 46.7624 179.309 43.0222 183.925 43.0222H189.496" fill="#DB9B7C"/>
<path d="M228.491 43.0222H234.062C238.678 43.0222 242.418 46.7624 242.418 51.3784C242.418 55.9944 238.678 59.7345 234.062 59.7345H228.491" fill="#EFBE9A"/>
<path d="M231.276 29.0953V54.1637C231.276 66.4695 221.299 76.4468 208.993 76.4468C196.688 76.4468 186.71 66.4695 186.71 54.1637V29.0953" fill="#DB9B7C"/>
<path d="M204.815 76.0429C215.124 74.0844 222.92 65.0401 222.92 54.1638V29.0953H186.71V54.1638C186.71 65.0401 194.506 74.0844 204.815 76.0429Z" fill="#EFBE9A"/>
<path d="M214.565 23.5246V26.3099C214.565 35.5406 207.083 43.0222 197.852 43.0222H181.14V29.0953C181.14 18.3264 189.869 9.59766 200.638 9.59766H217.35C228.119 9.59766 236.848 18.3264 236.848 29.0953V43.0222H222.921C218.305 43.0222 214.565 39.2821 214.565 34.6661V23.5246Z" fill="#976947"/>
<path d="M228.316 12.976C225.191 10.8462 221.416 9.59766 217.35 9.59766H200.638C189.869 9.59766 181.14 18.3264 181.14 29.0953V43.0222H197.852C207.083 43.0222 214.565 35.5406 214.565 26.3099V34.6661C214.565 37.5548 216.029 40.1008 218.258 41.6023C224.558 35.2672 228.491 26.3997 228.491 16.5611C228.491 15.3493 228.43 14.1552 228.316 12.976Z" fill="#C18E59"/>
<path d="M167.213 115.442V104.3C167.213 88.9169 154.743 76.4467 139.359 76.4467H111.505C96.1219 76.4467 83.6516 88.9169 83.6516 104.3V115.442" fill="#2D4D83"/>
<path d="M131.003 76.4467H111.505C96.1219 76.4467 83.6516 88.9169 83.6516 104.3V115.442H158.857V104.3C158.857 88.9169 146.387 76.4467 131.003 76.4467Z" fill="#4472B2"/>
<path d="M114.291 76.4467L125.432 90.3736L136.574 76.4467" fill="#DB9B7C"/>
<path d="M105.934 59.7345H100.364C95.7476 59.7345 92.0075 55.9944 92.0075 51.3784C92.0075 46.7624 95.7476 43.0222 100.364 43.0222H105.934" fill="#DB9B7C"/>
<path d="M144.93 43.0222H150.501C155.117 43.0222 158.857 46.7624 158.857 51.3784C158.857 55.9944 155.117 59.7345 150.501 59.7345H144.93" fill="#EFBE9A"/>
<path d="M147.715 29.0953V54.1637C147.715 66.4695 137.738 76.4468 125.432 76.4468C113.126 76.4468 103.149 66.4695 103.149 54.1637V29.0953" fill="#DB9B7C"/>
<path d="M121.254 76.0429C131.563 74.0844 139.359 65.0401 139.359 54.1638V29.0953H103.149V54.1638C103.149 65.0401 110.945 74.0844 121.254 76.0429Z" fill="#EFBE9A"/>
<path d="M131.003 23.5246V26.3099C131.003 35.5406 123.521 43.0222 114.291 43.0222H97.5783V29.0953C97.5783 18.3264 106.307 9.59766 117.076 9.59766H133.788C144.557 9.59766 153.286 18.3264 153.286 29.0953V43.0222H139.359C134.743 43.0222 131.003 39.2821 131.003 34.6661V23.5246Z" fill="#976947"/>
<path d="M144.754 12.976C141.629 10.8462 137.855 9.59766 133.788 9.59766H117.076C106.307 9.59766 97.5783 18.3264 97.5783 29.0953V43.0222H114.291C123.521 43.0222 131.003 35.5406 131.003 26.3099V34.6661C131.003 37.5548 132.468 40.1008 134.697 41.6023C140.997 35.2672 144.93 26.3997 144.93 16.5611C144.93 15.3493 144.869 14.1552 144.754 12.976Z" fill="#C18E59"/>
</g>
<path d="M84.4384 114.658V103.516C84.4384 88.1328 71.9681 75.6625 56.5846 75.6625H28.7308C13.3472 75.6625 0.876953 88.1328 0.876953 103.516V114.658" fill="#AF4A47"/>
<path d="M48.2284 75.6625H28.7308C13.3472 75.6625 0.876953 88.1328 0.876953 103.516V114.658H76.0823V103.516C76.0823 88.1328 63.612 75.6625 48.2284 75.6625Z" fill="#E4725F"/>
<path d="M31.5134 75.6625L42.655 89.5894L53.7965 75.6625" fill="#DB9B7C"/>
<path d="M23.1704 58.9508H17.5996C12.9836 58.9508 9.24347 55.2107 9.24347 50.5947C9.24347 45.9787 12.9836 42.2385 17.5996 42.2385H23.1704" fill="#DB9B7C"/>
<path d="M62.1558 42.2385H67.7266C72.3426 42.2385 76.0827 45.9787 76.0827 50.5947C76.0827 55.2107 72.3426 58.9508 67.7266 58.9508H62.1558" fill="#EFBE9A"/>
<path d="M64.9492 28.3112V53.3796C64.9492 65.6853 54.9718 75.6626 42.6661 75.6626C30.3604 75.6626 20.3831 65.6853 20.3831 53.3796V28.3112" fill="#DB9B7C"/>
<path d="M38.488 75.2587C48.7972 73.3002 56.593 64.2559 56.593 53.3796V28.3112H20.3831V53.3796C20.3831 64.2559 28.1789 73.3002 38.488 75.2587Z" fill="#EFBE9A"/>
<path d="M48.224 22.7396V25.525C48.224 34.7556 40.7424 42.2372 31.5117 42.2372H14.7994V28.3103C14.7994 17.5415 23.5282 8.81268 34.2971 8.81268H51.0094C61.7782 8.81268 70.507 17.5415 70.507 28.3103V42.2372H56.5801C51.9641 42.2372 48.224 38.4971 48.224 33.8811V22.7396Z" fill="#976947"/>
<path d="M61.9755 12.191C58.8501 10.0612 55.076 8.81268 51.0094 8.81268H34.2971C23.5282 8.81268 14.7994 17.5415 14.7994 28.3103V42.2372H31.5117C40.7424 42.2372 48.224 34.7556 48.224 25.525V33.8811C48.224 36.7698 49.6888 39.3158 51.9179 40.8173C58.2177 34.4822 62.151 25.6147 62.151 15.7761C62.151 14.5643 62.0898 13.3702 61.9755 12.191Z" fill="#C18E59"/>
<defs>
<clipPath id="clip0_2344_2965">
<rect width="167.123" height="114.468" fill="white" transform="translate(84.2239 0.454346)"/>
</clipPath>
</defs>
</svg>
