<svg width="132" height="132" viewBox="0 0 132 132" fill="none" xmlns="http://www.w3.org/2000/svg">
<path d="M91.9607 78.8383L105.551 94.9789C107.119 96.5472 107.401 98.101 108.969 96.5327C109.557 95.9447 111.16 96.5126 111.307 95.7534C111.552 94.4878 111.184 93.127 110.204 92.1468L103.386 85.329L100.744 85.6646L100.569 82.5119L94.4282 76.3708L91.328 75.7371L91.9607 78.8383Z" fill="#918291"/>
<path d="M107.737 94.6143L100.919 87.7965L98.3797 88.1185L98.1018 84.9794L91.9607 78.8383L89.0178 79.0352L88.7494 82.0496L94.8905 88.1907L97.5431 88.1902L97.7076 91.0078L104.525 97.8256C106.094 99.3939 108.636 99.3939 110.205 97.8256C110.801 97.2293 111.169 96.4922 111.312 95.7214C110.055 95.9544 108.709 95.5863 107.737 94.6143Z" fill="#7A6D79"/>
<path d="M103.387 85.329V85.3287L100.57 82.5116L98.1018 84.9794L98.4754 87.3538L100.919 87.7965L103.387 85.329Z" fill="#FCE3A0"/>
<path d="M35.1553 51.405H101.461V37.2294C101.461 26.2187 96.6807 16.3244 89.0827 9.50836C88.3273 8.83083 82.576 9.37404 81.767 8.75915C80.9995 8.17598 85.1768 6.43137 84.3645 5.90801C79.4972 2.77275 73.8519 0.741186 67.7822 0.167037C66.6136 0.0564359 65.3717 0.48853 64.1741 0.48853C43.6131 0.48853 32.9961 16.6681 32.9961 37.2291L35.1553 51.405Z" fill="#ECF4FF"/>
<path d="M53.6818 22.6346C54.0267 22.6346 54.3763 22.5449 54.6945 22.3567L63.6671 17.0463C71.1795 12.6003 79.7582 10.0052 88.4754 9.54215L89.0812 9.50993C87.6094 8.18967 86.0329 6.98388 84.3638 5.90906C76.3641 6.8805 68.5772 9.51096 61.6379 13.6179L52.6655 18.9283C51.7185 19.4886 51.4056 20.7101 51.9658 21.6573C52.3378 22.2856 53.0009 22.6346 53.6818 22.6346Z" fill="#CBE2FF"/>
<path d="M113.947 126.315V122.445C113.947 115.017 109.07 108.471 101.953 106.345L82.2463 100.459C78.8166 99.434 76.4664 96.2791 76.4664 92.6996V92.3397L64.4768 93.4189L57.7201 95.4172C57.7201 98.9967 54.8393 101.723 51.4096 102.748L28.0799 110.652C20.963 112.778 20.8768 115.017 20.8768 122.445V126.315C20.8768 129.455 19.4746 130.348 22.0695 132H35.5629L66.7077 123.974L95.2591 132H108.262C111.402 132 113.947 129.455 113.947 126.315Z" fill="#FFE8C8"/>
<path d="M51.9959 74.8282V92.6993C51.9959 96.2788 49.6457 99.4336 46.216 100.458L26.5091 106.345C19.3922 108.471 14.5154 115.017 14.5154 122.445V126.315C14.5154 129.455 17.0605 132 20.2001 132H22.0698C21.92 131.49 21.8362 130.952 21.8362 130.395V126.524C21.8362 119.097 26.713 112.55 33.8299 110.424L53.5368 104.538C56.9665 103.513 59.3167 101.122 59.3167 98.6223V98.5803C59.3167 96.4822 61.0639 94.7852 63.1592 94.8922C63.6338 94.9165 64.1095 94.9289 64.5854 94.9289C68.6903 94.9289 72.748 94.0389 76.4667 92.3396V74.8285L51.9959 74.8282Z" fill="#FAB684"/>
<path d="M91.2751 132H43.5497L41.7844 127.926L43.5497 120.723H93.267L91.2751 132Z" fill="#ECF4FF"/>
<path d="M37.5551 120.723H43.5497V132H37.5551V120.723Z" fill="#CBE2FF"/>
<path d="M67.8854 0.178664C66.6832 0.0616172 65.4642 0 64.2311 0C43.6701 0 27.0017 16.6681 27.0017 37.2294V51.405H34.3104V37.2294C34.3104 17.9012 49.0398 2.01506 67.8854 0.178664Z" fill="#CBE2FF"/>
<path d="M94.1519 43.6445H99.9531C103.192 43.6445 105.818 46.2701 105.818 49.5093V53.3012C105.818 56.5401 103.192 59.1659 99.9531 59.1659H94.1519V43.6445Z" fill="#FAB684"/>
<path d="M99.2736 49.4131H93.2885L95.4665 53.3971H99.2738C100.374 53.3971 101.266 52.5053 101.266 51.4052C101.266 50.3049 100.374 49.4131 99.2736 49.4131Z" fill="#E59965"/>
<path d="M77.5663 85.7196L76.2316 86.4915C73.7259 87.9407 71.0161 88.8866 68.2435 89.3277C66.5554 89.5963 63.2069 88.5009 61.7358 88.0869C58.7829 87.2559 57.9094 86.3048 54.8198 84.5811L52.4613 84.1508C41.1137 77.8192 38.4061 67.3141 38.4061 54.3196V53.2595C38.4061 36.0087 46.4378 20.9025 63.6186 17.3354C64.8193 17.3354 66.6167 16.7906 67.7821 16.9226C83.3606 18.6855 95.4662 31.908 95.4662 47.9581V54.6896C95.4662 67.4863 88.6442 79.3127 77.5663 85.7196Z" fill="#FFE8C8"/>
<path d="M60.5713 86.6686L58.697 85.6229C47.3494 79.2913 40.3168 67.3141 40.3168 54.3196V47.9578C40.3168 31.9456 52.3659 18.75 67.8916 16.9373C66.6908 16.797 65.4698 16.7228 64.2312 16.7228H64.231C48.4441 16.7228 35.3949 28.4355 33.2937 43.6446H28.5092C25.2703 43.6446 22.6448 46.2702 22.6448 49.5093V53.301C22.6448 56.5399 25.2706 59.1657 28.5092 59.1657H33.3249C34.8341 70.2379 41.4561 80.0877 51.3764 85.6229L53.2507 86.6686C57.8795 89.2514 63.1665 90.1331 68.2433 89.3251C65.5889 88.9023 62.9901 88.0182 60.5713 86.6686Z" fill="#FAB684"/>
<path d="M37.5551 115.034C36.4547 115.034 35.5632 115.926 35.5632 117.026V132H39.5472V117.026C39.547 115.926 38.6549 115.034 37.5551 115.034Z" fill="#FAB684"/>
<path d="M93.2671 115.034C92.167 115.034 91.2753 115.926 91.2753 117.026V132H95.2592V117.026C95.2592 115.926 94.3672 115.034 93.2671 115.034Z" fill="#FAB684"/>
<path d="M94.4284 76.3706L93.5264 68.2508C93.1531 64.8922 89.8064 62.7098 86.5824 63.723C85.2815 64.1319 84.0541 64.6996 82.9223 65.404C82.615 65.5953 82.1367 66.6943 81.9106 66.9524C79.7695 69.3949 81.1764 73.7171 80.1258 77.0597C79.1126 80.2836 79.8904 77.9932 83.2492 78.3665L93.8878 76.912L94.4284 76.3706Z" fill="#FE8187"/>
<path d="M81.2402 69.0653C81.649 67.7644 82.2201 66.539 82.9244 65.4072C79.709 67.4081 77.2634 70.508 76.102 74.2038C75.0887 77.4277 77.2711 80.7744 80.6297 81.1477L88.7495 82.0501L93.8877 76.9119L85.7679 76.0098C82.4091 75.6359 80.227 72.289 81.2402 69.0653Z" fill="#FF646F"/>
<path d="M94.8711 88.1925L98.082 84.9816L100.899 87.7982L97.6878 91.0092L94.8711 88.1925Z" fill="#F7BD61"/>
<path d="M125.125 29.1813C126.193 28.8706 127.348 28.5344 128.509 28.1964C131.13 27.4338 131.13 23.7208 128.51 22.9582L125.127 21.9739C124.043 21.6586 123.164 20.8851 122.709 19.8719C122.638 19.7118 120.748 19.8944 120.698 19.7229C120.387 18.6553 120.111 19.4819 119.773 18.3207C119.011 15.7 118.114 15.7637 117.351 18.3843L116.363 20.7748C115.998 22.0296 114.845 22.4493 113.591 22.8146C112.503 23.1312 112.027 23.9598 110.882 24.2932C108.261 25.0558 109.408 26.8009 112.029 27.5635L113.399 28.2328C114.654 28.5978 116.922 29.3365 117.288 30.5913C117.604 31.679 118.357 31.7406 118.69 32.886C119.453 35.5067 119.457 34.8694 120.22 32.2487L121.59 31.0058C121.64 30.8339 122.638 31.4438 122.71 31.2832C123.164 30.27 124.042 29.4966 125.125 29.1813Z" fill="#FCE3A0"/>
<path d="M120.297 29.1808L116.914 28.1964C114.293 27.4338 114.293 23.7211 116.914 22.9585C118.059 22.6251 119.21 22.2902 120.298 21.9736C121.381 21.6586 122.257 20.8836 122.712 19.8709C122.64 19.7105 122.576 19.5455 122.526 19.3741C122.215 18.3065 121.879 17.1512 121.541 15.99C120.779 13.3694 117.066 13.3691 116.303 15.9898L115.318 19.3725C114.953 20.6273 113.973 21.6083 112.719 21.9734C111.631 22.2899 110.48 22.6248 109.334 22.9582C106.714 23.7208 106.714 27.4336 109.335 28.1962L112.717 29.1805C113.972 29.5456 114.953 30.5255 115.318 31.7803C115.635 32.868 115.97 34.0191 116.303 35.1646C117.066 37.7853 120.778 37.785 121.541 35.1643L122.525 31.7816C122.575 31.6096 122.639 31.4441 122.712 31.2835C122.257 30.2708 121.38 29.4961 120.297 29.1808Z" fill="#F7BD61"/>
<path d="M49.159 56.2142C47.0287 56.2142 44.8984 55.6019 43.0398 54.3768L42.4535 53.9901C41.5349 53.3847 41.2812 52.1493 41.8866 51.2307C42.4919 50.3124 43.7274 50.0582 44.646 50.6641L45.2322 51.0505C47.6175 52.6227 50.7004 52.6227 53.086 51.0505L53.6722 50.6641C54.5908 50.059 55.8263 50.3129 56.4316 51.2307C57.0369 52.1493 56.7833 53.3847 55.8647 53.9901L55.2784 54.3766C53.4198 55.6017 51.2893 56.2142 49.159 56.2142Z" fill="#E59965"/>
<path d="M79.3031 56.2142C77.1728 56.2142 75.0425 55.6019 73.1839 54.3768L72.5977 53.9901C71.6791 53.3847 71.4254 52.1493 72.0308 51.2307C72.6361 50.3124 73.8715 50.0582 74.7901 50.6641L75.3764 51.0505C77.7619 52.6227 80.8446 52.6229 83.2301 51.0503L83.8164 50.6641C84.735 50.0587 85.9704 50.3127 86.5758 51.2307C87.1811 52.1493 86.9274 53.3847 86.0088 53.9901L85.4226 54.3766C83.564 55.6017 81.4334 56.2142 79.3031 56.2142Z" fill="#E59965"/>
<path d="M64.3621 75.2441C62.2318 75.2441 60.1015 74.6318 58.2429 73.4067L57.6566 73.02C56.7381 72.4147 56.4844 71.1792 57.0897 70.2606C57.6951 69.3423 58.9305 69.0881 59.8491 69.694L60.4354 70.0804C62.8209 71.6526 65.9036 71.6528 68.2891 70.0802L68.8754 69.694C69.7939 69.0886 71.0294 69.3426 71.6347 70.2606C72.2401 71.1792 71.9864 72.4147 71.0678 73.02L70.4815 73.4065C68.6227 74.6313 66.4924 75.2441 64.3621 75.2441Z" fill="#E59965"/>
<path d="M29.1888 49.4131C28.0884 49.4131 27.1969 50.3049 27.1969 51.405C27.1969 52.5053 28.0887 53.3968 29.1888 53.3968H32.9961V49.4128L29.1888 49.4131Z" fill="#E59965"/>
<path d="M19.2811 88.0386C20.3487 87.7279 21.5039 87.3917 22.6651 87.0537C25.2858 86.2911 25.286 82.5781 22.6654 81.8155L19.2826 80.8312C18.199 80.5159 17.3199 79.7424 16.8651 78.7292C16.7932 78.5691 14.9034 78.7517 14.8534 78.5802C14.5427 77.5126 14.2671 78.3392 13.9291 77.178C13.1665 74.5573 12.2696 74.621 11.507 77.2416L10.519 79.6321C10.154 80.8869 9.00105 81.3066 7.74627 81.6719C6.65856 81.9885 6.18264 82.8171 5.03718 83.1505C2.41652 83.9131 3.56378 85.6582 6.18445 86.4208L7.55498 87.0901C8.80975 87.4551 11.078 88.1938 11.4433 89.4486C11.7599 90.5363 12.5122 90.5979 12.8455 91.7433C13.6082 94.364 13.6128 93.7267 14.3754 91.106L15.7459 89.8631C15.796 89.6912 16.7932 90.3011 16.8654 90.1405C17.3201 89.1276 18.1983 88.3539 19.2811 88.0386Z" fill="#FCE3A0"/>
<path d="M14.4522 88.0383L11.0695 87.054C8.44879 86.2914 8.44854 82.5786 11.0692 81.816C12.2147 81.4826 13.3658 81.1478 14.4535 80.8312C15.5363 80.5161 16.4124 79.7411 16.8671 78.7284C16.7952 78.5681 16.7315 78.4031 16.6818 78.2316C16.3711 77.164 16.0349 76.0088 15.6969 74.8476C14.9343 72.2269 11.2216 72.2267 10.4587 74.8473L9.47411 78.2301C9.10905 79.4849 8.12911 80.4658 6.87433 80.8309C5.78662 81.1475 4.63549 81.4824 3.49003 81.8157C0.869363 82.5784 0.869621 86.2911 3.49029 87.0537L6.87304 88.038C8.12782 88.4031 9.10879 89.3831 9.47386 90.6378C9.79045 91.7255 10.1253 92.8767 10.4587 94.0221C11.2213 96.6428 14.9341 96.6425 15.6967 94.0219L16.681 90.6391C16.731 90.4672 16.795 90.3016 16.8671 90.141C16.4124 89.1283 15.5355 88.3534 14.4522 88.0383Z" fill="#F7BD61"/>
</svg>
