<svg width="114" height="117" viewBox="0 0 114 117" fill="none" xmlns="http://www.w3.org/2000/svg">
<path fill-rule="evenodd" clip-rule="evenodd" d="M29.6896 10.0864H84.7241V26.2244H29.6896V10.0864Z" fill="#5D4C72"/>
<path fill-rule="evenodd" clip-rule="evenodd" d="M29.6897 22.1895H84.7241C94.4939 22.1895 102.414 30.3178 102.414 40.3446V102.879C102.414 106.624 100.964 110.216 98.384 112.864C95.8038 115.512 92.3042 117 88.6552 117H25.7586C22.1096 117 18.61 115.512 16.0298 112.864C13.4496 110.216 12 106.624 12 102.879V40.3446C12 30.3178 19.9199 22.1895 29.6897 22.1895Z" fill="#7D6599"/>
<path fill-rule="evenodd" clip-rule="evenodd" d="M19.8621 42.3619C18.7765 42.3619 17.8965 41.4587 17.8965 40.3447C17.903 33.6629 23.1792 28.2479 29.6896 28.2412C30.7752 28.2412 31.6552 29.1444 31.6552 30.2585C31.6552 31.3725 30.7752 32.2757 29.6896 32.2757C25.3475 32.2757 21.8276 35.8883 21.8276 40.3447C21.8276 40.8797 21.6205 41.3928 21.2519 41.7711C20.8833 42.1494 20.3834 42.3619 19.8621 42.3619Z" fill="white"/>
<path d="M86.6896 0H27.7241C25.5531 0 23.7931 1.8063 23.7931 4.03448V10.0862C23.7931 12.3144 25.5531 14.1207 27.7241 14.1207H86.6896C88.8607 14.1207 90.6207 12.3144 90.6207 10.0862V4.03448C90.6207 1.8063 88.8607 0 86.6896 0Z" fill="#D1D4D1"/>
<path fill-rule="evenodd" clip-rule="evenodd" d="M35.5862 14.1207V8.069C35.5862 6.95491 34.7062 6.05176 33.6207 6.05176C32.5351 6.05176 31.6552 6.95491 31.6552 8.069V14.1207H35.5862Z" fill="#A5A5A4"/>
<path fill-rule="evenodd" clip-rule="evenodd" d="M43.4482 8.069V14.1207H39.5172V8.069C39.5172 6.95491 40.3972 6.05176 41.4827 6.05176C42.5683 6.05176 43.4482 6.95491 43.4482 8.069Z" fill="#A5A5A4"/>
<path fill-rule="evenodd" clip-rule="evenodd" d="M51.3103 8.069V14.1207H47.3793V8.069C47.3793 6.95491 48.2593 6.05176 49.3448 6.05176C50.4303 6.05176 51.3103 6.95491 51.3103 8.069Z" fill="#A5A5A4"/>
<path fill-rule="evenodd" clip-rule="evenodd" d="M59.1724 8.069V14.1207H55.2413V8.069C55.2413 6.95491 56.1213 6.05176 57.2069 6.05176C58.2924 6.05176 59.1724 6.95491 59.1724 8.069Z" fill="#A5A5A4"/>
<path fill-rule="evenodd" clip-rule="evenodd" d="M67.0344 8.069V14.1207H63.1034V8.069C63.1034 6.95491 63.9834 6.05176 65.0689 6.05176C66.1544 6.05176 67.0344 6.95491 67.0344 8.069Z" fill="#A5A5A4"/>
<path fill-rule="evenodd" clip-rule="evenodd" d="M74.8965 8.069V14.1207H70.9655V8.069C70.9655 6.95491 71.8455 6.05176 72.931 6.05176C74.0166 6.05176 74.8965 6.95491 74.8965 8.069Z" fill="#A5A5A4"/>
<path fill-rule="evenodd" clip-rule="evenodd" d="M82.7586 8.069V14.1207H78.8276V8.069C78.8276 6.95491 79.7076 6.05176 80.7931 6.05176C81.8786 6.05176 82.7586 6.95491 82.7586 8.069Z" fill="#A5A5A4"/>
<path fill-rule="evenodd" clip-rule="evenodd" d="M90.1293 96.8274H102.414V48.4136H75.1324H33.6207H12V96.8274H28.3138H90.1293Z" fill="#8697CB"/>
<path fill-rule="evenodd" clip-rule="evenodd" d="M84.7241 86.0113C84.7097 94.2572 78.8159 101.25 70.8672 102.452C61.1238 103.702 51.249 101.657 42.7407 96.626L42.7014 96.6462C40.8889 97.2557 38.9018 96.939 37.3548 95.7941C35.8078 94.6492 34.8875 92.8141 34.8786 90.8567V88.5772C33.5422 86.4346 32.7328 83.991 32.52 81.4564C32.239 78.0844 32.8288 74.6959 34.23 71.6324C38.1414 62.8372 44.7259 45.4688 46.3179 41.2528C46.5447 40.6651 47.0236 40.2182 47.6152 40.0424L59.2903 36.6333C59.9897 36.4307 60.7412 36.6312 61.2559 37.1578L66.8969 42.9271C67.659 43.7139 67.659 44.9846 66.8969 45.7714L62.789 49.9874L62.7693 50.0277C63.1771 50.2362 63.5972 50.4181 64.0272 50.5724C65.409 51.0973 66.3264 52.4493 66.3269 53.9614C66.3242 54.345 66.2646 54.7259 66.15 55.091C65.5469 56.9582 63.5948 57.9824 61.7669 57.3907C59.7142 56.6715 57.5669 56.277 55.3986 56.2207C55.2019 56.2244 55.005 56.2176 54.809 56.2005C53.7428 56.1425 52.735 55.6828 51.9786 54.9095C51.7292 56.4715 51.7159 58.0637 51.9393 59.6298C52.0495 60.618 52.2603 61.5916 52.5683 62.5346C53.9075 66.3721 54.4758 70.4481 54.239 74.5171L54.2586 74.4969C55.3256 73.0965 56.6903 71.9649 58.2486 71.1886C64.2996 68.094 71.4739 68.3986 77.2552 71.9955C81.4269 74.6476 84.153 79.1466 84.6259 84.1595C84.6848 84.7808 84.7241 85.386 84.7241 86.0113Z" fill="#FDD7AD"/>
<path fill-rule="evenodd" clip-rule="evenodd" d="M63.017 94.5722C59.6962 94.7822 56.3833 94.0479 53.4429 92.45C52.536 91.8373 52.2847 90.586 52.8818 89.6551C53.4788 88.7243 54.698 88.4665 55.605 89.0792C55.7465 89.168 61.246 92.4742 73.6504 88.8331C74.3256 88.6349 75.0525 88.8215 75.5573 89.3225C76.0621 89.8235 76.2682 90.5628 76.0978 91.2621C75.9275 91.9613 75.4066 92.5141 74.7314 92.7123C70.9297 93.8874 66.987 94.5134 63.017 94.5722Z" fill="#F9C795"/>
<path fill-rule="evenodd" clip-rule="evenodd" d="M40.7771 84.7239C40.0326 84.7247 39.3516 84.2936 39.018 83.6104C37.6088 80.4778 37.6088 76.8686 39.018 73.736C39.5057 72.7472 40.6793 72.3474 41.6463 72.8406C42.6134 73.3338 43.0116 74.5353 42.5382 75.5314C41.6804 77.5299 41.6804 79.8065 42.5382 81.805C42.7715 82.2838 42.8097 82.8381 42.6446 83.3458C42.4794 83.8536 42.1244 84.2732 41.6577 84.5121C41.3845 84.6528 41.0828 84.7254 40.7771 84.7239Z" fill="#F9C795"/>
<path fill-rule="evenodd" clip-rule="evenodd" d="M56.2045 81.6137C55.8384 82.1696 55.2269 82.5023 54.5731 82.5013C54.1801 82.5091 53.7948 82.3891 53.4724 82.1584C53.0392 81.8592 52.7398 81.3954 52.6403 80.8694C52.5407 80.3433 52.6492 79.7983 52.9417 79.3544C53.7 77.8517 54.1419 76.2023 54.239 74.513L54.2586 74.4929C55.3256 73.0924 56.6904 71.9608 58.2486 71.1846C58.606 74.7929 57.8935 78.4279 56.2045 81.6137Z" fill="#CBB292"/>
<path fill-rule="evenodd" clip-rule="evenodd" d="M62.7693 50.0274L62.789 49.987L65.7176 46.9813C63.7898 46.1893 62.0479 44.986 60.6072 43.4512C59.8365 42.6602 58.5869 42.6602 57.8162 43.4512C57.0455 44.2422 57.0455 45.5246 57.8162 46.3156C59.7303 48.3379 62.0605 49.8955 64.6365 50.8746C64.4435 50.7537 64.2394 50.6523 64.0272 50.572C63.5972 50.4177 63.1771 50.2358 62.7693 50.0274Z" fill="#CBB292"/>
<path fill-rule="evenodd" clip-rule="evenodd" d="M51.9393 59.6257C50.7299 59.227 49.6673 58.4601 48.8928 57.4269C47.6956 55.6573 47.3148 53.4378 47.851 51.355C47.986 50.8367 48.3178 50.3955 48.7721 50.1301C49.2265 49.8648 49.7655 49.7973 50.2686 49.9429C51.3089 50.2477 51.9204 51.3506 51.6445 52.4241C51.5784 52.7151 51.5454 53.0129 51.5462 53.3117C51.5343 53.875 51.6847 54.4294 51.9786 54.9053C51.7292 56.4673 51.7159 58.0595 51.9393 59.6257Z" fill="#CBB292"/>
</svg>
