<svg width="50" height="50" viewBox="0 0 50 50" fill="none" xmlns="http://www.w3.org/2000/svg">
<g clip-path="url(#clip0_31_186)">
<mask id="mask0_31_186" style="mask-type:luminance" maskUnits="userSpaceOnUse" x="0" y="0" width="50" height="50">
<path d="M50 0H0V50H50V0Z" fill="white"/>
</mask>
<g mask="url(#mask0_31_186)">
<mask id="mask1_31_186" style="mask-type:luminance" maskUnits="userSpaceOnUse" x="0" y="0" width="50" height="50">
<path d="M50 0H0V50H50V0Z" fill="white"/>
</mask>
<g mask="url(#mask1_31_186)">
<path d="M5.99219 29.2935H6.77285C7.31221 29.2935 7.74941 28.8562 7.74941 28.3169C7.74941 27.7776 7.31221 27.3403 6.77285 27.3403H5.99219C5.45283 27.3403 5.01562 27.7776 5.01562 28.3169C5.01562 28.8562 5.45283 29.2935 5.99219 29.2935Z" fill="white"/>
<path d="M16.6055 29.2935C17.1448 29.2935 17.582 28.8562 17.582 28.3169C17.582 27.7776 17.1448 27.3403 16.6055 27.3403H10.6816C10.1423 27.3403 9.70508 27.7776 9.70508 28.3169C9.70508 28.8562 10.1423 29.2935 10.6816 29.2935H16.6055Z" fill="white"/>
<path d="M5.99219 33.9287H16.6053C17.1446 33.9287 17.5818 33.4914 17.5818 32.9521C17.5818 32.4129 17.1446 31.9756 16.6053 31.9756H5.99219C5.45283 31.9756 5.01562 32.4129 5.01562 32.9521C5.01562 33.4914 5.45283 33.9287 5.99219 33.9287Z" fill="white"/>
<path d="M38.3516 20.1902V3.81143C38.3516 2.05977 36.925 0.634766 35.1716 0.634766H3.17725C1.42529 0.634766 0 2.05986 0 3.81143V15.4206C0 15.9599 0.437207 16.3972 0.976562 16.3972C1.51592 16.3972 1.95312 15.9599 1.95312 15.4206V3.81143C1.95312 3.13672 2.50225 2.58789 3.17725 2.58789H12.2353V15.2546C12.2353 15.6085 12.4268 15.9348 12.7357 16.1072C13.0447 16.2797 13.4229 16.2717 13.7242 16.0858L19.1744 12.7267L24.6246 16.0858C25.2646 16.4804 26.1136 16.0028 26.1136 15.2545V2.58789H35.1716C35.848 2.58789 36.3984 3.13672 36.3984 3.81143V19.9049C36.0173 19.8753 35.6321 19.8599 35.2436 19.8599C27.1068 19.8599 20.4871 26.4779 20.4871 34.6125C20.4871 35.4334 20.5557 36.2385 20.6853 37.0232H3.17725C2.50225 37.0232 1.95312 36.4731 1.95312 35.797V24.1878C1.95312 23.6485 1.51592 23.2112 0.976562 23.2112C0.437207 23.2112 0 23.6485 0 24.1878V35.7971C0 37.5502 1.42529 38.9765 3.17725 38.9765H21.1462C23.0117 44.9873 28.6258 49.3652 35.2436 49.3652C43.3803 49.3652 50 42.7472 50 34.6126C50 27.5437 45.0008 21.621 38.3516 20.1902ZM24.1604 13.5056L19.6868 10.7482C19.3727 10.5547 18.9762 10.5547 18.662 10.7482L14.1884 13.5056V2.58789H24.1604V13.5056ZM35.2436 47.4121C28.1838 47.4121 22.4402 41.6702 22.4402 34.6126C22.4402 27.555 28.1838 21.8131 35.2436 21.8131C42.3033 21.8131 48.0469 27.5549 48.0469 34.6126C48.0469 41.6703 42.3033 47.4121 35.2436 47.4121Z" fill="white"/>
<path d="M37.018 28.9565H33.2875L35.0286 27.2174C35.4102 26.8362 35.4105 26.2178 35.0294 25.8362C34.6482 25.4546 34.03 25.4544 33.6482 25.8354L30.2379 29.2421C29.8614 29.6152 29.8614 30.2509 30.2379 30.6239L33.6482 34.0306C33.839 34.2211 34.0887 34.3163 34.3384 34.3163C34.5885 34.3163 34.8386 34.2208 35.0293 34.0299C35.4105 33.6483 35.4102 33.03 35.0286 32.6487L33.2875 30.9094H37.0181C39.3812 30.9094 41.3037 32.8314 41.3037 35.1937C41.3037 37.5576 39.3812 39.4807 37.0181 39.4807H28.207C27.6677 39.4807 27.2305 39.918 27.2305 40.4573C27.2305 40.9966 27.6677 41.4339 28.207 41.4339H37.0181C40.4582 41.4339 43.2568 38.6345 43.2568 35.1937C43.2567 31.7546 40.4581 28.9565 37.018 28.9565Z" fill="white"/>
<path d="M0.976562 20.7835C1.51592 20.7835 1.95312 20.3435 1.95312 19.8042C1.95312 19.2649 1.51592 18.8276 0.976562 18.8276C0.437207 18.8276 0 19.2649 0 19.8042V19.8098C0 20.349 0.437207 20.7835 0.976562 20.7835Z" fill="white"/>
</g>
</g>
</g>
<defs>
<clipPath id="clip0_31_186">
<rect width="50" height="50" fill="white"/>
</clipPath>
</defs>
</svg>
