<svg width="50" height="50" viewBox="0 0 50 50" fill="none" xmlns="http://www.w3.org/2000/svg">
<g clip-path="url(#clip0_31_201)">
<mask id="mask0_31_201" style="mask-type:luminance" maskUnits="userSpaceOnUse" x="0" y="0" width="50" height="50">
<path d="M50 0H0V50H50V0Z" fill="white"/>
</mask>
<g mask="url(#mask0_31_201)">
<mask id="mask1_31_201" style="mask-type:luminance" maskUnits="userSpaceOnUse" x="0" y="0" width="50" height="50">
<path d="M50 0H0V50H50V0Z" fill="white"/>
</mask>
<g mask="url(#mask1_31_201)">
<path d="M48.5947 8.14697C48.5947 6.25918 48.2728 4.40654 47.6376 2.64023C47.4161 2.02461 46.7337 1.68701 46.1164 1.88857C45.2394 2.1748 44.1361 1.6583 42.9683 1.11143C41.856 0.59043 40.595 0 39.2675 0C37.94 0 36.6789 0.59043 35.5665 1.11133C34.3989 1.65811 33.2959 2.17461 32.4184 1.88848C31.8009 1.6873 31.1185 2.02461 30.8973 2.64033C30.2622 4.40635 29.9402 6.25908 29.9402 8.14697C29.9402 8.42285 29.9494 8.6958 29.9633 8.96699C27.5983 8.00361 25.0138 7.4707 22.3068 7.4707C11.0795 7.4707 1.94546 16.6048 1.94546 27.832C1.94546 30.3992 2.42514 32.8558 3.29624 35.1198L1.82231 36.5938C1.26235 37.1538 1.26235 38.0651 1.82231 38.6253L12.7763 49.5792C13.0476 49.8506 13.4084 50 13.7921 50C14.1758 50 14.5365 49.8506 14.8079 49.5792L16.919 47.4682C18.6358 47.94 20.4421 48.1934 22.3067 48.1934C24.1712 48.1934 25.9776 47.94 27.6944 47.4682L29.8054 49.5791C30.0767 49.8505 30.4375 49.9999 30.8212 49.9999C31.2049 49.9999 31.5656 49.8505 31.837 49.5791L36.032 45.3842C36.318 45.0981 36.318 44.6344 36.032 44.3484C35.7458 44.0624 35.2822 44.0624 34.9961 44.3484L30.8212 48.5233L27.001 44.7031L37.9151 33.7892L41.7352 37.6094L37.4129 41.9315C37.1269 42.2176 37.1269 42.6813 37.4129 42.9673C37.699 43.2533 38.1627 43.2533 38.4488 42.9673L42.7909 38.6251C43.0622 38.3537 43.2117 37.993 43.2117 37.6093C43.2117 37.2255 43.0623 36.8647 42.7909 36.5935L41.3171 35.1196C42.1882 32.8556 42.6679 30.399 42.6679 27.8318C42.6679 25.3607 42.2231 22.9923 41.413 20.7992C46.06 17.8379 48.5947 13.4036 48.5947 8.14697ZM13.7922 48.5234L2.87817 37.6095L6.69829 33.7894L17.6123 44.7033L13.7922 48.5234ZM21.3404 19.9968H22.786L24.1504 21.3612C24.4186 21.6295 24.5617 21.9861 24.5533 22.3655C24.545 22.7445 24.3857 23.095 24.1047 23.3522C23.5698 23.8418 22.6957 23.8013 22.1564 23.2617L17.3148 18.4201C16.778 17.8832 16.778 17.0098 17.3147 16.4729C17.5167 16.2709 17.7664 16.1461 18.0278 16.0965C18.0259 16.131 18.0225 16.165 18.0225 16.1999V16.6789C18.0225 18.5084 19.5109 19.9968 21.3404 19.9968ZM19.4873 16.6789V16.1999C19.4873 15.9674 19.6766 15.7782 19.909 15.7782H23.6753C24.167 15.7782 24.6105 16.0393 24.8546 16.4447L22.7672 18.5321H21.3404C20.3186 18.5319 19.4873 17.7007 19.4873 16.6789ZM21.7199 24.8969C21.9828 25.1598 22.126 25.5094 22.1232 25.8812C22.1202 26.2531 21.9715 26.6005 21.7045 26.8593C21.1678 27.3794 20.3011 27.3727 19.7728 26.8441L14.3318 21.4031C14.0717 21.1431 13.9283 20.7973 13.9283 20.4295C13.9283 20.0617 14.0716 19.7159 14.3318 19.4559C14.5917 19.1958 14.9375 19.0526 15.3054 19.0526C15.6732 19.0526 16.019 19.1958 16.2789 19.4559L21.7199 24.8969ZM17.763 26.9061C18.026 27.169 18.1692 27.5187 18.1662 27.8905C18.1634 28.2624 18.0147 28.6097 17.7476 28.8686C17.2109 29.3888 16.3443 29.3818 15.8158 28.8534L12.2616 25.2992L11.3487 24.3862C11.0886 24.1262 10.9454 23.7804 10.9454 23.4126C10.9454 23.0448 11.0886 22.699 11.3487 22.439C11.6171 22.1705 11.9698 22.0363 12.3224 22.0363C12.6748 22.0363 13.0274 22.1704 13.2957 22.4387L17.763 26.9061ZM11.2248 26.334L13.6052 28.7144C13.8678 28.9772 14.0109 29.3267 14.0079 29.6981C14.005 30.07 13.8563 30.4174 13.5893 30.6762C13.0525 31.1963 12.186 31.1896 11.6575 30.661L9.27856 28.282C8.74174 27.7451 8.74174 26.8717 9.27846 26.3348C9.54692 26.0663 9.89956 25.9321 10.2522 25.9321C10.6043 25.9323 10.9565 26.0662 11.2248 26.334ZM12.6316 32.5242C13.3459 32.5242 14.0608 32.2593 14.6088 31.7281C15.0021 31.347 15.2701 30.8726 15.3942 30.3533C15.825 30.5947 16.3073 30.7164 16.7899 30.7164C17.5042 30.7164 18.219 30.4515 18.767 29.9203C19.1828 29.5174 19.4594 29.0104 19.5728 28.4562C19.9443 28.6231 20.3453 28.7072 20.7467 28.7072C21.4611 28.7072 22.1759 28.4423 22.7239 27.9111C23.2751 27.377 23.582 26.6602 23.5879 25.8927C23.5899 25.6386 23.5581 25.3896 23.4959 25.1505C24.0748 25.0897 24.636 24.8519 25.0938 24.4327C25.6724 23.903 26.0005 23.1804 26.0178 22.3979C26.035 21.6151 25.7396 20.8791 25.1861 20.3256L24.1156 19.2552L26.4536 16.9172C26.9907 16.3805 27.8642 16.3804 28.4009 16.9172C28.9371 17.4534 28.9377 18.3256 28.4029 18.8626L28.401 18.8645C28.115 19.1505 28.115 19.6143 28.4011 19.9002C28.687 20.1862 29.1508 20.1861 29.4368 19.9002C29.9736 19.3634 30.8472 19.3634 31.3839 19.9002C31.9201 20.4364 31.9207 21.3086 31.3858 21.8456L31.384 21.8475C31.098 22.1335 31.0979 22.5973 31.3839 22.8832C31.6699 23.1692 32.1337 23.1692 32.4197 22.8832C32.6798 22.623 33.0255 22.4799 33.3934 22.4799C33.7612 22.4799 34.107 22.623 34.3669 22.8831C34.9038 23.42 34.9038 24.2936 34.3669 24.8304C34.0809 25.1164 34.0809 25.5802 34.3669 25.8661C34.653 26.1521 35.1167 26.1521 35.4027 25.8661C35.6691 25.5998 36.0204 25.4563 36.3996 25.4631C36.7759 25.4693 37.1252 25.6247 37.3831 25.9005C37.8841 26.4359 37.8517 27.3116 37.3109 27.8524L32.0558 33.1075C31.7697 33.3936 31.7697 33.8573 32.0558 34.1433C32.3419 34.4293 32.8056 34.4293 33.0916 34.1433L34.3736 32.8618L35.5723 34.0605L27.7995 41.8333L23.596 37.6298C24.1939 37.4204 24.8304 37.3199 25.4729 37.3438L26.8667 37.3953C28.0946 37.4415 29.3062 37.1422 30.3741 36.5319C30.7254 36.3313 30.8475 35.8838 30.6467 35.5326C30.446 35.1813 29.9985 35.0594 29.6475 35.26C28.817 35.7345 27.8732 35.9669 26.9209 35.9313L25.5271 35.8799C23.7051 35.8115 21.9203 36.5133 20.6311 37.8025L16.7073 41.7264L9.17573 34.1949L11.2191 32.1516C11.6541 32.3995 12.1426 32.5242 12.6316 32.5242ZM22.3068 46.7285C20.8708 46.7285 19.473 46.5644 18.1281 46.2592L18.6682 45.719C18.9395 45.4478 19.089 45.0869 19.089 44.7032C19.089 44.3194 18.9396 43.9587 18.6682 43.6874L17.7431 42.7623L21.667 38.8384C21.8463 38.659 22.0385 38.495 22.2406 38.3457L26.7638 42.8689L25.9453 43.6874C25.3855 44.2475 25.3855 45.1588 25.9454 45.7189L26.4856 46.2591C25.1405 46.5644 23.7427 46.7285 22.3068 46.7285ZM41.2032 27.832C41.2032 29.983 40.8413 32.0509 40.1762 33.9788L38.931 32.7336C38.6597 32.4622 38.2988 32.3128 37.9152 32.3128C37.5315 32.3128 37.1706 32.4622 36.8993 32.7336L36.6081 33.0248L35.4094 31.8261L38.3471 28.8884C39.4402 27.7952 39.4879 26.006 38.4533 24.9C37.9218 24.3316 37.2012 24.0115 36.4244 23.9985C36.3596 23.9974 36.2948 23.9985 36.2305 24.0018C36.2697 23.2266 35.9939 22.4382 35.4031 21.8474C34.8664 21.3106 34.1528 21.015 33.3938 21.015C33.3447 21.015 33.2959 21.0163 33.2474 21.0187C33.2865 20.2436 33.0109 19.4551 32.42 18.8644C31.8288 18.2731 31.0405 17.9979 30.2643 18.0371C30.3039 17.2614 30.0281 16.4725 29.4369 15.8813C28.4938 14.9382 27.0474 14.7984 25.9543 15.4611C25.4299 14.7564 24.5944 14.3134 23.6755 14.3134H19.9092C19.505 14.3134 19.131 14.4423 18.8236 14.6596C17.9297 14.4891 16.9698 14.7465 16.279 15.437C15.6882 16.0278 15.4127 16.8162 15.452 17.5915C15.4033 17.5891 15.3545 17.5877 15.3055 17.5877C14.5464 17.5877 13.8327 17.8833 13.2961 18.42C12.7593 18.9567 12.4637 19.6704 12.4637 20.4295C12.4637 20.4785 12.4651 20.5273 12.4675 20.576C11.6923 20.5367 10.9039 20.8123 10.3131 21.4031C9.77631 21.9398 9.48081 22.6535 9.48081 23.4126C9.48081 23.7998 9.55815 24.175 9.70473 24.5211C9.1688 24.6256 8.65727 24.8849 8.24292 25.2991C7.13501 26.4071 7.13501 28.21 8.24292 29.318L10.1122 31.1873L8.14018 33.1594L7.7144 32.7336C7.44311 32.4622 7.08227 32.3128 6.69858 32.3128C6.31489 32.3128 5.95415 32.4622 5.68286 32.7336L4.43764 33.9788C3.7726 32.0509 3.41069 29.983 3.41069 27.832C3.41069 17.4125 11.8876 8.93555 22.3072 8.93555C25.1004 8.93555 27.753 9.54678 30.141 10.6395C30.9092 15.3443 33.8827 19.2194 38.7086 21.7116C38.8837 21.8021 39.0758 21.8474 39.2679 21.8474C39.4599 21.8474 39.652 21.8021 39.8269 21.7117C39.9289 21.659 40.0283 21.6044 40.1286 21.5505C40.8235 23.5167 41.2032 25.6307 41.2032 27.832ZM39.2675 20.3512C36.8437 19.0798 34.9366 17.4406 33.598 15.4775C32.1428 13.3434 31.4049 10.8771 31.4049 8.14697C31.4049 6.5041 31.6726 4.89102 32.2011 3.34834C33.5491 3.67354 34.8894 3.046 36.1876 2.43799C37.2094 1.95957 38.2658 1.46484 39.2675 1.46484C40.2691 1.46484 41.3255 1.95957 42.3472 2.43799C43.6455 3.04609 44.9859 3.67363 46.3338 3.34834C46.8622 4.89092 47.1299 6.5042 47.1299 8.14697C47.1299 10.8771 46.392 13.3434 44.9368 15.4775C43.5983 17.4405 41.6912 19.0798 39.2675 20.3512Z" fill="white"/>
<path d="M44.3218 9.09727C44.7078 8.97646 44.9226 8.56553 44.8018 8.17949C44.0409 5.74824 41.817 4.11475 39.2676 4.11475C36.0702 4.11475 33.4688 6.71602 33.4688 9.91338C33.4688 13.1107 36.0702 15.712 39.2676 15.712C41.6399 15.712 43.7494 14.2909 44.6416 12.0915C44.7936 11.7167 44.6131 11.2896 44.2382 11.1375C43.8632 10.9853 43.436 11.166 43.284 11.5408C42.6172 13.1848 41.0403 14.2471 39.2673 14.2471C36.8775 14.2471 34.9336 12.3029 34.9336 9.91328C34.9336 7.52363 36.8775 5.57949 39.2673 5.57949C41.1728 5.57949 42.8352 6.80019 43.4039 8.61699C43.5248 9.00312 43.9361 9.21807 44.3218 9.09727Z" fill="white"/>
<path d="M41.1865 8.1325L38.9248 10.3943L37.348 8.81755C37.0619 8.53152 36.5982 8.53152 36.3122 8.81755C36.0261 9.10359 36.0261 9.56736 36.3122 9.8533L38.4068 11.9479C38.5499 12.0909 38.7374 12.1625 38.9248 12.1625C39.1122 12.1625 39.2997 12.091 39.4427 11.9479L42.2224 9.16824C42.5084 8.8822 42.5084 8.41843 42.2224 8.1325C41.9363 7.84646 41.4726 7.84646 41.1865 8.1325Z" fill="white"/>
</g>
</g>
</g>
<defs>
<clipPath id="clip0_31_201">
<rect width="50" height="50" fill="white"/>
</clipPath>
</defs>
</svg>
