<svg width="107" height="109" viewBox="0 0 107 109" fill="none" xmlns="http://www.w3.org/2000/svg">
<g clip-path="url(#clip0_401_2170)">
<path fill-rule="evenodd" clip-rule="evenodd" d="M22.754 106.127C10.2173 106.127 0 95.7183 0 82.9473V26.0528C0 13.2819 10.2173 2.87354 22.754 2.87354C35.2906 2.87354 45.5079 13.2819 45.5079 26.0528V56.3199C45.5079 56.9585 45.0691 57.4693 44.505 57.597L44.3796 85.2461C44.9438 85.4377 45.3199 86.0124 45.2572 86.6509C43.4394 97.7616 33.7862 106.127 22.754 106.127Z" fill="#335F8C"/>
<path fill-rule="evenodd" clip-rule="evenodd" d="M0 60.1513V48.7852H45.5079V56.32C45.5079 56.9586 45.0691 57.4694 44.505 57.5971V60.1513H0Z" fill="#294D71"/>
<path fill-rule="evenodd" clip-rule="evenodd" d="M73.1512 106.127C54.5343 106.127 39.365 90.6739 39.365 71.6452C39.365 52.6804 54.5343 37.2275 73.1512 37.2275C91.8307 37.2275 107 52.6804 107 71.6452C107 90.6739 91.8307 106.127 73.1512 106.127Z" fill="#5684B9"/>
<path fill-rule="evenodd" clip-rule="evenodd" d="M51.2748 45.4009C54.3463 42.7829 57.9192 40.6757 61.7429 39.207L95.0276 97.9534C91.9561 100.571 88.4458 102.679 84.5595 104.083L51.2748 45.4009Z" fill="#456B96"/>
<path fill-rule="evenodd" clip-rule="evenodd" d="M24.133 100.635C13.6022 100.635 5.64148 92.2064 5.64148 81.0318C5.64148 79.3716 8.1488 79.3716 8.1488 81.0318C8.1488 90.7377 15.0439 98.081 24.133 98.081C25.7627 98.081 25.7627 100.635 24.133 100.635Z" fill="white"/>
<path fill-rule="evenodd" clip-rule="evenodd" d="M95.717 61.5561C95.2782 61.5561 94.8394 61.3007 94.6514 60.8537C89.9502 52.0418 80.9238 46.5503 71.0826 46.5503C69.3901 46.5503 69.3901 43.9961 71.0826 43.9961C81.8641 43.9961 91.7053 49.9984 96.8453 59.6405C97.2841 60.5345 96.6573 61.5561 95.717 61.5561Z" fill="white"/>
</g>
<defs>
<clipPath id="clip0_401_2170">
<rect width="107" height="109" fill="white"/>
</clipPath>
</defs>
</svg>
